<svg width="51" height="51" viewBox="0 0 51 51" fill="none" xmlns="http://www.w3.org/2000/svg">
<g clip-path="url(#clip0_1245_9859)">
<path d="M23.8796 13.664C23.0823 14.0076 22.298 14.2501 21.6118 14.661C18.9126 16.2843 17.5597 18.7429 17.527 21.9626C17.5009 24.044 17.5401 26.1187 17.5074 28.2001C17.5009 28.7457 17.3898 29.298 17.2329 29.8167C17.0303 30.4835 16.5401 30.8271 15.8408 30.854C15.1677 30.8742 14.5991 31.3592 14.4095 32.0193C14.22 32.6996 14.4618 33.4136 15.0108 33.8313C15.3703 34.1007 15.7689 34.1411 16.1938 34.1411C22.4026 34.1411 28.6114 34.1411 34.8137 34.1411C34.9378 34.1411 35.062 34.1411 35.1862 34.1276C36.0227 34.0603 36.6567 33.3463 36.6567 32.4908C36.6567 31.6152 36.0031 30.9012 35.147 30.8607C34.4607 30.8338 33.9706 30.5037 33.7745 29.8504C33.6111 29.3182 33.5 28.7524 33.4935 28.2001C33.4608 26.1322 33.4869 24.0642 33.4804 21.9963C33.4739 19.4569 32.5785 17.3216 30.7289 15.6309C29.6963 14.6879 28.4872 14.0884 27.1474 13.7853C26.9317 12.5324 26.3762 11.9329 25.4743 11.9531C24.5724 11.9733 23.9842 12.62 23.8796 13.664ZM22.3111 34.9562C22.3503 36.2292 22.8862 37.1925 23.9384 37.7987C25.0691 38.4453 26.2194 38.3915 27.2977 37.6438C28.2062 37.0106 28.6571 36.1013 28.6767 34.9562H22.3111Z" fill="white"/>
<path d="M23.8793 13.664C23.9904 12.62 24.5721 11.9733 25.474 11.9531C26.3759 11.9329 26.9314 12.5324 27.1406 13.7718C28.4804 14.0749 29.6895 14.6744 30.7221 15.6174C32.5716 17.3082 33.467 19.4434 33.4736 21.9829C33.4736 24.0508 33.454 26.1187 33.4866 28.1866C33.4932 28.7389 33.6108 29.3115 33.7677 29.8369C33.9703 30.4903 34.4539 30.8203 35.1401 30.8473C35.9963 30.881 36.6499 31.595 36.6499 32.4774C36.6499 33.3328 36.0094 34.0468 35.1793 34.1142C35.0552 34.1209 34.931 34.1276 34.8068 34.1276C28.598 34.1276 22.3892 34.1276 16.1869 34.1276C15.7686 34.1276 15.3634 34.0872 15.004 33.8178C14.455 33.4002 14.2132 32.6929 14.4027 32.0058C14.5857 31.3457 15.1608 30.8607 15.834 30.8405C16.5333 30.8203 17.0235 30.4768 17.2261 29.8032C17.3829 29.2845 17.494 28.7255 17.5006 28.1866C17.5333 26.1052 17.5006 24.0306 17.5202 21.9492C17.5594 18.7362 18.9123 16.2708 21.6049 14.6475C22.2912 14.2366 23.0754 13.9941 23.8728 13.6506L23.8793 13.664Z" fill="#FFC555"/>
<path d="M22.3105 34.9561H28.6762C28.6566 36.1012 28.2056 37.0105 27.2972 37.6437C26.2254 38.3914 25.0686 38.452 23.9379 37.7986C22.8791 37.1924 22.3498 36.2291 22.3105 34.9561Z" fill="#FFC555"/>
</g>
<defs>
<clipPath id="clip0_1245_9859">
<rect width="22.3125" height="26.2969" fill="white" transform="translate(14.3438 11.9531)"/>
</clipPath>
</defs>
</svg>
