<svg width="215" height="99" viewBox="0 0 215 99" fill="none" xmlns="http://www.w3.org/2000/svg">
<g clip-path="url(#clip0_1132_6377)">
<path d="M10.0847 15.0068C10.0847 13.9539 10.0165 12.8954 10.1103 11.8539C10.1644 11.2409 10.3379 10.5399 10.7076 10.0773C11.5608 9.00746 13.0767 9.18341 13.9725 10.3384C14.3508 10.8266 14.7433 11.3062 15.1414 11.7772C15.2154 11.8652 15.3519 11.9021 15.5965 12.0355C15.6221 11.6581 15.6619 11.3771 15.659 11.0933C15.6448 9.88153 15.6107 8.66975 15.5993 7.46081C15.5993 7.17986 15.6334 6.89323 15.6875 6.61512C15.8752 5.6701 16.4696 5.09117 17.3882 4.9436C18.0935 4.82724 18.9126 5.30968 19.3762 6.03051C19.9564 6.9358 20.5593 7.83257 21.2021 8.69529C21.5775 9.20044 22.0354 9.20044 22.5131 8.73502C24.9306 6.38525 27.8884 4.92089 30.9855 3.72614C35.5672 1.95813 40.3367 1.00176 45.2113 0.451206C50.1116 -0.102183 55.0204 -0.127724 59.9121 0.269581C66.7776 0.825809 73.5151 2.10854 80.0621 4.32493C84.8514 5.94537 89.4417 7.96879 93.7219 10.6705C96.1536 12.2058 98.406 13.9681 100.448 15.9915C100.883 16.4229 101.165 16.4257 101.671 16.0511C105.815 12.989 110.106 10.1653 115.086 8.62151C116.306 8.24407 117.615 8.14474 118.88 7.90636C119.253 7.83541 119.682 7.80987 119.975 7.60554C123.51 5.15076 127.56 4.00425 131.667 3.05356C136.482 1.9411 141.396 1.68569 146.305 2.04327C149.334 2.26462 152.349 2.81234 155.338 3.37991C158.096 3.90493 160.904 4.39872 163.529 5.34941C170.596 7.90636 177.225 11.2579 183.212 15.9433C188.633 20.1859 192.754 25.4502 196.263 31.2026C198.32 34.5712 199.804 38.3031 201.388 41.9384C203.095 45.8519 203.959 50.0406 204.969 54.1669C205.942 58.1428 206.86 62.1357 207.716 66.14C208.706 70.7629 210.683 74.9034 213.569 78.6296C213.93 79.0978 214.243 79.6058 214.55 80.1109C215.225 81.2234 215.111 82.2223 214.368 83.3348C212.193 86.5927 208.996 88.3976 205.492 89.7796C201.277 91.4426 196.872 92.2231 192.367 92.6034C184.176 93.2958 176.187 92.1975 168.298 90.0748C167.948 89.9811 167.59 89.9244 167.246 89.8165C166.444 89.5668 165.747 89.7399 165.053 90.2053C158.844 94.3742 151.868 96.514 144.59 97.8194C138.641 98.8865 132.642 99.2383 126.607 98.8354C122.421 98.5573 118.311 97.8421 114.27 96.6786C112.669 96.2188 111.002 95.9805 109.353 95.7023C106.455 95.2142 103.548 94.763 100.644 94.3089C96.5404 93.6704 92.4336 93.0461 88.3297 92.4161C87.9713 92.3621 87.613 92.3111 87.2603 92.2344C85.7444 91.8967 84.3423 92.0812 82.8122 92.5466C79.5132 93.554 76.1288 94.3401 72.7358 94.9787C64.3943 96.548 55.976 97.5526 47.478 97.3824C43.1181 97.2944 38.744 96.9964 34.4211 96.4402C30.9002 95.9861 27.4276 95.0808 23.9664 94.2408C20.6816 93.4462 17.4053 92.5892 14.1915 91.5533C11.1257 90.5657 8.5831 88.6104 6.18558 86.5161C3.63449 84.2883 1.63229 81.6377 0.665324 78.3543C-0.79935 73.3823 0.0680784 68.9637 4.05541 65.4021C4.64981 64.8714 4.77779 64.267 4.78063 63.549C4.79201 59.5731 4.99109 55.6 5.7476 51.6979C6.16567 49.5411 6.95347 47.4496 7.64173 45.3496C7.87778 44.6316 7.90338 44.0413 7.66163 43.2921C6.652 40.1619 6.46714 36.9238 6.73732 33.6603C6.96769 30.8763 7.49668 28.1576 8.57741 25.5552C8.68833 25.2856 8.52053 24.8004 8.32714 24.5222C6.48705 21.8943 5.30393 19.0196 4.90577 15.8326C4.85742 15.4552 4.87164 15.0579 4.93421 14.6804C5.08494 13.7836 5.62531 13.1877 6.50411 12.9578C7.38007 12.7279 8.06264 13.1082 8.62292 13.7581C9.02677 14.2235 9.41924 14.7003 9.81456 15.1742C9.90273 15.1175 9.99089 15.0607 10.0819 15.0039L10.0847 15.0068ZM95.289 88.7977C94.9904 88.443 94.8083 88.2131 94.6121 87.9918C93.8926 87.183 93.0991 86.4281 92.4649 85.5597C90.0844 82.3046 89.0236 78.7431 90.0133 74.7047C90.7272 71.7902 92.2487 69.3468 94.2566 67.1786C94.6462 66.7586 94.7486 66.35 94.7031 65.7881C94.5751 64.1733 94.413 62.5472 94.4614 60.9353C94.6093 56.2017 95.9659 51.7291 97.8003 47.4212C101.133 39.5971 105.792 32.6556 112.037 26.8209C114.637 24.3945 117.495 22.3598 120.686 20.7478C122.228 19.9703 123.502 20.1916 124.776 21.1451C125.123 21.4062 125.419 21.7383 125.714 22.0589C126.485 22.8933 127.236 23.7447 128.007 24.5762C131.465 28.3108 135.486 31.3729 139.664 34.2364C140.06 34.5088 140.614 34.6422 141.103 34.6677C143.396 34.7841 145.697 34.7954 147.986 34.943C148.981 35.0083 149.977 35.2495 150.941 35.5191C151.788 35.7546 152.28 36.5946 152.172 37.358C152.067 38.1072 151.422 38.6606 150.497 38.6691C149.806 38.6748 149.112 38.5414 148.421 38.4847C148.151 38.462 147.878 38.4818 147.605 38.4818C147.596 38.55 147.588 38.6181 147.579 38.6862C147.77 38.8054 147.952 38.9388 148.151 39.0409C151.655 40.8657 155.181 42.6394 158.654 44.5181C162.172 46.4223 165.633 48.4343 168.753 50.9714C171.173 52.9438 173.363 55.1119 174.791 57.9356C175.263 58.8665 175.255 58.8693 175.963 58.1144C178.488 55.4269 181.486 53.6334 185.254 53.3922C188.71 53.1736 191.548 54.3655 193.559 57.2403C195.231 59.6298 195.834 62.3599 195.49 65.1921C194.523 73.1326 190.544 79.0325 183.15 82.3614C180.419 83.593 177.527 83.6839 174.72 82.4153C174.157 82.1599 173.827 82.2933 173.446 82.7048C172.604 83.6101 171.719 84.4785 170.861 85.3667C170.747 85.4859 170.67 85.642 170.508 85.8861C170.957 86.0138 171.313 86.1415 171.677 86.2152C172.638 86.4139 173.602 86.5927 174.563 86.7772C180.141 87.8556 185.76 88.2273 191.443 88.0003C196.576 87.796 201.363 86.394 205.95 84.2174C207.008 83.7151 207.941 82.9432 208.902 82.2564C209.329 81.9527 209.309 81.5724 208.985 81.1241C208.308 80.1819 207.671 79.2113 207.065 78.2237C205.868 76.2684 204.687 74.3131 204.008 72.0825C202.901 68.45 202.133 64.7494 201.4 61.0289C200.942 58.7075 200.16 56.4542 199.614 54.1499C198.456 49.2744 197.136 44.4613 194.907 39.9405C193.266 36.6145 191.773 33.2232 189.472 30.2463C186.756 26.733 184.099 23.2338 180.539 20.447C173.477 14.9188 165.724 10.8918 156.936 8.97908C152.064 7.92055 147.158 7.09472 142.133 7.12594C135.893 7.16283 129.929 8.37177 124.23 10.9089C122.327 11.7545 120.402 12.5037 118.328 12.9379C114.819 13.673 111.497 14.9954 108.508 17.0075C103.158 20.6059 99.3986 25.524 96.6683 31.3133C94.8908 35.0792 93.958 39.0579 93.5456 43.1445C93.0877 47.6539 92.8602 52.186 92.5559 56.7125C92.1918 62.1073 91.3927 67.4284 89.7744 72.5962C88.8274 75.6186 87.8661 78.6494 86.6744 81.5781C85.8468 83.6157 84.6267 85.4973 83.5602 87.4355C83.2104 88.0741 83.2502 88.2216 83.9612 88.355C84.0892 88.3777 84.2172 88.4033 84.3452 88.4089C87.7239 88.5821 91.0997 88.7523 94.4784 88.9169C94.6917 88.9283 94.9079 88.8602 95.2947 88.8034L95.289 88.7977ZM74.7892 90.6367C74.647 90.4153 74.6243 90.333 74.5674 90.2961C73.9474 89.8818 73.7853 89.2972 73.936 88.6048C74.0839 87.9208 74.5731 87.5689 75.2073 87.3901C76.6179 86.9872 77.8693 86.2578 78.6827 85.0687C79.8402 83.3745 81.0404 81.6462 81.8282 79.7704C83.9641 74.6735 85.5482 69.3922 86.4498 63.9236C86.9076 61.151 86.9219 58.4947 85.4032 55.9236C84.0409 53.622 82.9516 51.1587 81.7599 48.7579C79.6639 44.5351 77.5906 40.3009 75.4746 36.0867C75.1135 35.3687 74.7267 34.5003 74.0953 34.1115C72.8325 33.3339 71.4191 32.7777 70.0255 32.2413C66.1718 30.7628 62.3096 29.2899 58.2882 28.325C55.1797 27.5786 52.0711 26.7869 48.9228 26.2704C45.0606 25.6375 41.1387 25.9156 37.2424 26.0292C36.2128 26.0604 35.1776 26.1597 34.1594 26.3271C31.87 26.7103 29.5948 27.1927 27.3053 27.5673C24.5523 28.0157 21.7908 28.4016 19.0292 28.7876C17.866 28.9494 16.9986 29.4517 16.5265 30.5698C15.7956 32.2981 14.8883 33.9696 14.3252 35.749C13.2928 39.004 12.4879 42.3272 11.5324 45.6078C9.86576 51.3262 9.35099 57.1864 9.21163 63.1034C9.19456 63.8271 9.37943 64.0797 10.153 64.0797C12.3116 64.0797 14.2626 64.7466 15.9406 66.1457C19.1174 68.7962 18.7334 73.2773 15.1016 75.2439C12.2832 76.7679 9.40502 76.6402 6.54677 75.2865C6.14008 75.0935 5.75045 74.8665 5.13329 74.543C5.19871 75.2014 5.19871 75.6498 5.2954 76.0755C5.94953 78.9758 7.67585 81.1893 9.90273 83.0453C14.1745 86.6069 19.1799 88.7183 24.5011 90.089C30.2944 91.5817 36.2356 92.2146 42.1967 92.5693C50.2026 93.0432 58.2057 92.995 66.1747 91.9478C69.013 91.576 71.8371 91.0908 74.7978 90.6395L74.7892 90.6367ZM108.633 37.0402L108.77 37.2247C109.009 37.1963 109.262 37.2076 109.484 37.131C112.265 36.1945 115.126 36.2427 117.999 36.4244C118.431 36.4528 118.877 36.5265 119.287 36.6741C120.169 36.992 120.604 37.7071 120.484 38.5244C120.376 39.2651 119.722 39.81 118.812 39.8582C118.377 39.8838 117.93 39.8667 117.498 39.8043C113.966 39.302 110.559 39.7305 107.237 41.0445C105.985 41.5383 105.078 42.2052 104.415 43.451C101.748 48.4485 99.6062 53.6249 98.8469 59.2666C98.5938 61.1396 98.7388 63.0665 98.7217 64.9679C98.716 65.4617 98.9407 65.7086 99.5067 65.6235C102.783 65.1354 105.32 66.4153 107.021 69.1368C108.545 71.5774 108.707 74.0237 106.742 76.3791C105.297 78.1102 103.326 78.9957 101.165 79.498C99.1057 79.9747 97.0722 79.9577 95.0529 79.2709C94.8112 79.1886 94.5183 79.2539 94.2481 79.2511C94.2651 79.5178 94.2168 79.813 94.3135 80.0485C94.6263 80.8091 94.9221 81.5895 95.3487 82.2848C96.9328 84.8701 99.2877 86.6211 101.876 88.0798C107.041 90.9914 112.683 92.4785 118.502 93.1993C131.257 94.7772 143.777 93.7385 155.867 89.1468C162.05 86.7999 167.746 83.7094 171.663 78.0875C172.575 76.7793 173.918 76.6771 175.161 77.7016C176.961 79.1858 178.946 79.2965 181.068 78.6154C183.508 77.8321 185.459 76.3337 187.08 74.4096C189.867 71.1006 191.539 67.3688 191.221 62.9332C190.985 59.6298 188.593 57.3141 185.618 57.5639C183.804 57.7171 182.117 58.2733 180.743 59.5192C179.12 60.9949 177.527 62.5018 175.94 64.0144C175.155 64.7608 174.302 65.1779 173.21 64.809C172.095 64.4316 171.93 63.4837 171.711 62.4904C171.472 61.3979 171.199 60.2627 170.67 59.2921C169.146 56.5053 166.742 54.4819 164.137 52.8104C160.517 50.4861 156.763 48.352 152.991 46.2747C148.29 43.6865 143.518 41.2346 138.763 38.7458C138.447 38.5812 138.018 38.5131 137.665 38.567C135.609 38.882 133.661 39.5517 131.786 40.4485C131.007 40.8231 130.302 40.6472 129.85 40.0342C129.434 39.4694 129.488 38.7458 130.046 38.1243C130.302 37.8405 130.6 37.5652 130.933 37.3921C131.732 36.9778 132.566 36.6287 133.385 36.2484C133.675 36.115 133.965 35.976 134.386 35.7773C134.084 35.5162 133.902 35.346 133.709 35.1927C132.657 34.3612 131.573 33.5695 130.549 32.7011C127.862 30.4251 125.293 28.0327 123.732 24.7862C123.502 24.3066 123.152 24.2413 122.714 24.4797C121.829 24.9593 120.917 25.3935 120.069 25.9298C115.846 28.5946 112.407 32.0994 109.353 36.0072C109.094 36.3364 108.869 36.6911 108.627 37.0317L108.633 37.0402ZM99.7143 69.0545C98.5426 68.7594 97.5614 69.4177 96.856 70.5557C96.0483 71.8612 95.2748 73.1893 94.5524 74.5402C94.4472 74.7388 94.615 75.3121 94.8055 75.4057C97.6069 76.7707 101.213 76.4671 103.574 74.5799C104.578 73.7796 104.814 72.8119 104.324 71.6285C103.551 69.7668 102.271 69.0091 99.7143 69.0545ZM10.554 73.3653C11.8992 73.3936 13.0198 73.2007 14.001 72.4543C15.2694 71.4922 15.4258 69.9115 14.3423 68.7565C12.8349 67.1474 9.9653 66.4976 7.89769 67.3376C7.61329 67.4539 7.32888 67.7122 7.1753 67.9789C6.75439 68.714 6.39604 69.4887 6.02063 70.2521C5.74476 70.814 5.8699 71.2794 6.33916 71.6994C7.58769 72.8147 9.02961 73.3965 10.554 73.3653Z" fill="black"/>
<path d="M95.292 88.7977C94.9053 88.8545 94.6891 88.9226 94.4758 88.9112C91.0971 88.7495 87.7212 88.5764 84.3425 88.4033C84.2146 88.3976 84.0866 88.3749 83.9586 88.3493C83.2476 88.216 83.2078 88.0655 83.5576 87.4298C84.6241 85.4916 85.8442 83.61 86.6718 81.5724C87.8634 78.6409 88.8276 75.6129 89.7718 72.5905C91.39 67.4227 92.1921 62.1016 92.5532 56.7068C92.8576 52.1832 93.0851 47.6482 93.543 43.1388C93.9582 39.0522 94.8882 35.0707 96.6657 31.3076C99.396 25.5212 103.156 20.6002 108.505 17.0018C111.494 14.9926 114.816 13.6673 118.326 12.9323C120.399 12.4981 122.325 11.7488 124.227 10.9032C129.929 8.36608 135.891 7.15997 142.13 7.12024C147.156 7.08902 152.062 7.91485 156.934 8.97339C165.722 10.8861 173.474 14.9131 180.536 20.4413C184.097 23.2281 186.753 26.7273 189.469 30.2406C191.77 33.2147 193.263 36.6088 194.904 39.9348C197.134 44.4556 198.453 49.2687 199.611 54.1442C200.157 56.4485 200.939 58.7047 201.397 61.0232C202.131 64.7409 202.899 68.4443 204.005 72.0768C204.685 74.3074 205.865 76.2627 207.062 78.218C207.668 79.2056 208.305 80.179 208.982 81.1184C209.306 81.5696 209.326 81.947 208.9 82.2507C207.938 82.9375 207.005 83.7094 205.948 84.2117C201.36 86.3883 196.574 87.7903 191.44 87.9946C185.758 88.2216 180.138 87.8499 174.561 86.7715C173.597 86.5842 172.633 86.4082 171.674 86.2096C171.31 86.1329 170.955 86.0081 170.505 85.8804C170.667 85.6391 170.741 85.4802 170.858 85.361C171.717 84.4699 172.601 83.6044 173.443 82.6991C173.824 82.2876 174.157 82.1542 174.717 82.4096C177.527 83.6782 180.417 83.5873 183.147 82.3557C190.541 79.024 194.52 73.124 195.487 65.1864C195.831 62.3542 195.228 59.6241 193.556 57.2346C191.545 54.3627 188.707 53.1679 185.252 53.3865C181.483 53.6248 178.488 55.4212 175.96 58.1087C175.252 58.8608 175.26 58.8608 174.788 57.9299C173.361 55.1062 171.171 52.9381 168.75 50.9657C165.633 48.4258 162.172 46.4166 158.651 44.5124C155.179 42.6337 151.649 40.8571 148.148 39.0352C147.949 38.9331 147.767 38.7997 147.577 38.6805C147.585 38.6124 147.594 38.5443 147.602 38.4762C147.875 38.4762 148.148 38.4563 148.418 38.479C149.112 38.5357 149.804 38.6691 150.495 38.6635C151.419 38.6578 152.062 38.1015 152.17 37.3523C152.278 36.5889 151.789 35.7489 150.938 35.5134C149.974 35.2438 148.976 35.0026 147.983 34.9373C145.691 34.7897 143.393 34.7784 141.101 34.662C140.612 34.6365 140.057 34.5031 139.662 34.2307C135.481 31.3672 131.462 28.3023 128.004 24.5705C127.233 23.739 126.483 22.8876 125.712 22.0532C125.416 21.7326 125.12 21.3977 124.773 21.1394C123.499 20.1831 122.225 19.9617 120.684 20.7421C117.495 22.3541 114.634 24.3888 112.035 26.8152C105.789 32.65 101.131 39.5914 97.7976 47.4155C95.9604 51.7234 94.6066 56.196 94.4587 60.9296C94.4076 62.5443 94.5697 64.1676 94.7005 65.7824C94.746 66.3443 94.6436 66.7529 94.254 67.173C92.2461 69.3439 90.7245 71.7845 90.0107 74.6991C89.0238 78.7374 90.0846 82.2989 92.4622 85.554C93.0993 86.4224 93.8928 87.1773 94.6095 87.9861C94.8057 88.2046 94.9877 88.4373 95.2864 88.792L95.292 88.7977Z" fill="black"/>
<path d="M74.7895 90.6368C71.8317 91.088 69.0076 91.5733 66.1664 91.945C58.1974 92.9922 50.1943 93.0405 42.1884 92.5665C36.2301 92.2118 30.289 91.5789 24.4928 90.0862C19.1745 88.7155 14.1662 86.6069 9.89444 83.0426C7.66756 81.1866 5.94124 78.9702 5.28711 76.0727C5.19041 75.647 5.19041 75.1986 5.125 74.5402C5.74215 74.8666 6.13179 75.0936 6.53848 75.2837C9.39673 76.6346 12.2749 76.7651 15.0933 75.2412C18.7251 73.2745 19.1091 68.7935 15.9323 66.1429C14.2543 64.7438 12.3062 64.0741 10.1447 64.0769C9.37113 64.0769 9.18627 63.8243 9.20334 63.1007C9.34269 57.1837 9.85746 51.3234 11.5241 45.605C12.4797 42.3244 13.2845 39.0012 14.3169 35.7462C14.88 33.9668 15.7873 32.2953 16.5182 30.567C16.9903 29.4489 17.8577 28.9466 19.0209 28.7848C21.7825 28.4017 24.544 28.0129 27.297 27.5645C29.5893 27.1928 31.8617 26.7075 34.1512 26.3244C35.1665 26.1541 36.2045 26.0548 37.2341 26.0264C41.1332 25.9129 45.0523 25.6348 48.9145 26.2676C52.0657 26.7841 55.1742 27.5759 58.2799 28.3222C62.3042 29.2871 66.1635 30.7628 70.0172 32.2385C71.4108 32.7721 72.8242 33.3311 74.087 34.1087C74.7155 34.4975 75.1052 35.3659 75.4663 36.0839C77.5823 40.2953 79.6528 44.5323 81.7517 48.7551C82.9433 51.156 84.0354 53.6193 85.3949 55.9208C86.9136 58.4891 86.8965 61.1482 86.4415 63.9208C85.5399 69.3894 83.9558 74.6708 81.8199 79.7676C81.0321 81.6463 79.8348 83.3717 78.6744 85.066C77.861 86.2551 76.6096 86.9844 75.199 87.3874C74.5648 87.569 74.0756 87.9181 73.9277 88.602C73.777 89.2944 73.9419 89.8791 74.5591 90.2934C74.6131 90.3303 74.6387 90.4097 74.7809 90.6339L74.7895 90.6368ZM63.1887 57.2432C63.1517 57.2432 63.1147 57.2432 63.0778 57.2432C63.0778 56.2897 63.055 55.3362 63.0834 54.3826C63.109 53.5937 62.7279 53.3553 61.9885 53.3724C60.6205 53.3979 59.2497 53.4007 57.8846 53.3326C57.5319 53.3156 57.0484 53.08 56.8948 52.7991C56.7839 52.5948 57.0314 52.0669 57.2674 51.8229C58.4704 50.5827 59.7019 49.3681 60.9646 48.1904C61.4368 47.7505 61.5448 47.3475 61.2917 46.7629C60.393 44.7054 59.2554 42.8125 57.5262 41.3482C55.561 39.6852 53.354 38.8707 50.7859 39.8072C48.6386 40.5905 47.137 42.1314 46.1018 44.1066C43.5876 48.9083 43.508 54.0052 44.4892 59.1787C44.6371 59.9534 44.4039 60.1975 43.7952 60.4188C42.7287 60.8048 41.6565 61.1851 40.6156 61.6306C39.5576 62.0819 39.0998 63.007 39.4354 63.8385C39.771 64.6615 40.6554 64.9652 41.7532 64.6303C41.8528 64.5991 41.9466 64.5593 42.0462 64.5281C43.9204 63.952 45.7605 63.112 47.6773 62.8594C51.9747 62.2975 56.309 61.8775 60.6376 62.7573C61.0358 62.8367 61.4652 62.8538 61.8662 62.797C62.7109 62.6778 63.2029 62.0081 63.1915 61.1595C63.1745 59.8541 63.1858 58.5487 63.1858 57.2432H63.1887ZM41.2527 92.2458C42.5951 92.0131 43.983 91.928 45.2713 91.5222C48.0641 90.6424 50.0777 88.6531 51.7927 86.3884C54.1475 83.2809 54.8671 79.6314 55.0292 75.84C55.0576 75.1759 55.1714 74.8297 55.9506 74.7474C57.3357 74.5998 57.8789 73.1638 57.0086 72.0854C56.7384 71.7506 56.3744 71.481 56.0189 71.2312C55.0206 70.5331 54.3693 69.6335 54.1361 68.4189C54.0167 67.7917 53.846 67.1503 53.5645 66.5856C53.0583 65.5753 51.9093 65.5242 51.2352 66.4352C50.7091 67.1475 50.692 67.9535 50.7802 68.802C50.8143 69.1113 50.7375 69.6023 50.5299 69.7413C48.2575 71.2568 46.0534 72.9169 43.6303 74.1543C39.4467 76.2884 35.1067 78.1216 30.4738 79.0837C29.359 79.3164 28.1531 79.3817 27.0269 79.2369C25.2579 79.0099 24.7744 78.0933 25.2948 76.4444C25.3404 76.2969 25.3859 76.1465 25.4058 75.9961C25.5281 75.0936 24.7403 74.3472 23.87 74.6112C23.4718 74.7332 23.0708 74.9971 22.7807 75.3036C21.0857 77.0972 21.3587 79.7534 23.3268 81.2632C25.3802 82.8411 27.681 83.1703 30.1496 82.6623C31.4408 82.3955 31.4721 82.3898 31.529 83.7293C31.6001 85.4406 32.0238 87.027 33.0733 88.426C35.121 91.1476 37.8598 92.3225 41.2527 92.2515V92.2458ZM24.2994 41.0303C22.9172 41.0389 21.4725 41.5894 20.3377 42.5798C18.0284 44.5891 16.9078 47.2539 16.2878 50.1485C15.7844 52.4926 15.3976 54.8679 15.9124 57.2745C16.0518 57.9272 15.7645 58.1599 15.1502 58.2053C14.6127 58.2479 14.0695 58.3302 13.5462 58.4607C12.784 58.6537 12.3375 59.2298 12.3403 59.9705C12.3431 60.7395 12.7669 61.2333 13.4836 61.4377C13.9529 61.571 14.4449 61.676 14.9284 61.6846C19.4276 61.7668 23.9013 61.9825 28.2697 63.2482C29.8538 63.708 30.909 63.0467 31.3157 61.4405C31.6939 59.9506 31.8731 58.4068 32.129 56.8885C32.2257 56.3153 31.9783 55.9435 31.492 55.6086C30.1752 54.7033 28.8783 53.764 27.6156 52.7849C26.6031 51.9988 26.6315 51.4029 27.7123 50.6764C28.6736 50.0293 29.6718 49.4305 30.6928 48.8828C31.219 48.599 31.4579 48.3095 31.1934 47.7306C30.7127 46.6778 30.3544 45.5511 29.7429 44.5834C28.4887 42.5969 26.8534 41.0729 24.2966 41.0332L24.2994 41.0303ZM69.6446 75.9393C71.2344 76.0216 72.7418 75.6697 74.1353 74.9546C75.9214 74.0379 77.2382 72.7041 77.369 70.57C77.497 68.5012 76.3935 67.0397 74.8065 65.9187C72.4886 64.2812 69.8608 63.918 67.1191 64.3238C65.0288 64.6331 63.2854 65.4703 62.1762 67.4682C61.0329 69.5285 61.1296 71.5746 62.7763 73.2717C64.6534 75.2043 67.031 75.8911 69.6446 75.9393ZM54.7248 31.1091C50.0322 31.2481 46.534 32.1534 43.4511 33.9413C42.4472 34.523 42.0718 35.4823 42.5154 36.3308C42.9506 37.1595 43.8891 37.4035 44.9414 36.958C45.1063 36.887 45.2713 36.8076 45.4334 36.7309C47.3702 35.7916 49.3667 34.9885 51.5338 34.8466C53.482 34.7217 55.4501 34.6508 57.3925 34.7983C58.3709 34.8721 59.3066 35.4908 60.265 35.854C61.1467 36.1861 61.9885 35.959 62.398 35.295C62.8559 34.5458 62.7137 33.6007 61.9828 32.9991C61.5903 32.6756 61.1353 32.4117 60.6774 32.1818C58.6752 31.1828 56.5337 30.987 54.722 31.1062L54.7248 31.1091ZM25.9376 32.3748C24.4559 32.5564 23.4263 32.6358 22.4138 32.8175C20.9492 33.0786 19.5755 33.6064 18.4123 34.5543C17.6188 35.2013 17.4795 35.9902 17.9231 36.6657C18.4066 37.4035 19.1802 37.6334 20.1017 37.1793C22.9457 35.7717 25.9092 35.7717 28.9324 36.3563C29.7657 36.5181 30.5904 36.7366 31.4266 36.8899C32.2087 37.0318 32.8912 36.677 33.2325 36.0044C33.6023 35.2751 33.3975 34.6195 32.8429 34.1172C32.4931 33.7994 32.038 33.5014 31.583 33.4078C29.5694 32.9963 27.5416 32.6642 25.9376 32.3776V32.3748ZM28.3351 69.5058C28.5854 70.2777 28.7418 71.0979 29.103 71.8158C29.8936 73.3965 32.0267 74.4182 33.571 74.0663C34.5237 73.8478 35.1665 73.0759 35.1153 72.2131C35.0641 71.4072 34.41 70.8055 33.4572 70.6637C33.1301 70.6154 32.7576 70.5842 32.5045 70.4054C32.2627 70.2351 32.0494 69.8946 32.0181 69.608C31.9982 69.4263 32.3224 69.1936 32.513 69.0092C32.6012 68.924 32.7434 68.8956 32.8571 68.836C33.6506 68.4189 33.9663 67.8229 33.7928 67.0851C33.6364 66.421 33.0647 66.0095 32.2229 65.9556C30.124 65.8165 28.4802 67.3575 28.3351 69.5086V69.5058Z" fill="white"/>
<path d="M108.633 37.0402C108.875 36.6968 109.103 36.3449 109.359 36.0157C112.41 32.1051 115.849 28.6031 120.075 25.9383C120.922 25.402 121.835 24.9678 122.72 24.4882C123.161 24.2498 123.508 24.3151 123.738 24.7947C125.299 28.0412 127.865 30.4336 130.555 32.7096C131.579 33.5751 132.663 34.3697 133.715 35.2012C133.908 35.3545 134.087 35.5219 134.392 35.7858C133.971 35.9845 133.681 36.1207 133.391 36.2569C132.571 36.6344 131.738 36.9863 130.939 37.4006C130.603 37.5737 130.305 37.849 130.052 38.1328C129.491 38.7543 129.437 39.4779 129.855 40.0427C130.308 40.6557 131.013 40.8316 131.792 40.457C133.666 39.5574 135.615 38.8905 137.671 38.5755C138.024 38.5216 138.453 38.5897 138.769 38.7543C143.524 41.2431 148.299 43.6951 152.997 46.2832C156.771 48.3606 160.523 50.4946 164.143 52.8189C166.748 54.4904 169.151 56.5167 170.676 59.3006C171.205 60.2684 171.478 61.4064 171.717 62.4989C171.936 63.4922 172.098 64.4401 173.216 64.8175C174.308 65.1864 175.164 64.7693 175.946 64.0229C177.533 62.5103 179.128 61.0034 180.749 59.5277C182.123 58.279 183.81 57.7228 185.624 57.5724C188.599 57.3226 190.994 59.6412 191.227 62.9417C191.542 67.3773 189.873 71.1091 187.086 74.4181C185.465 76.3422 183.514 77.8406 181.074 78.6239C178.949 79.305 176.967 79.1943 175.167 77.7101C173.924 76.6856 172.581 76.7878 171.668 78.096C167.749 83.7179 162.056 86.8084 155.873 89.1553C143.783 93.747 131.263 94.7857 118.508 93.2078C112.689 92.4898 107.046 90.9999 101.882 88.0883C99.2935 86.6296 96.9358 84.8786 95.3545 82.2933C94.9279 81.5952 94.6293 80.8147 94.3193 80.057C94.2226 79.8215 94.2738 79.5263 94.2539 79.2596C94.5241 79.2624 94.817 79.1971 95.0588 79.2794C97.0752 79.9662 99.1115 79.9832 101.171 79.5065C103.332 79.0042 105.303 78.1187 106.748 76.3876C108.713 74.0322 108.551 71.5859 107.026 69.1453C105.326 66.4238 102.789 65.1439 99.5125 65.632C98.9437 65.7171 98.7219 65.4674 98.7276 64.9764C98.7446 63.075 98.5996 61.1453 98.8527 59.2751C99.6121 53.6334 101.751 48.457 104.421 43.4595C105.087 42.2137 105.991 41.5468 107.243 41.053C110.564 39.739 113.972 39.3105 117.504 39.8128C117.936 39.8752 118.383 39.8894 118.818 39.8667C119.725 39.8156 120.379 39.2736 120.49 38.5329C120.61 37.7156 120.177 36.9976 119.293 36.6826C118.886 36.5379 118.44 36.4613 118.004 36.4329C115.132 36.2513 112.271 36.203 109.489 37.1395C109.265 37.2161 109.014 37.2048 108.776 37.2332L108.639 37.0487L108.633 37.0402ZM142.108 43.3488C141.206 43.6241 140.267 43.8142 139.414 44.1945C137.725 44.9437 136.547 46.2889 135.654 47.8639C133.547 51.5731 132.816 55.583 133.351 59.7888C133.516 61.097 133.561 62.0477 132.062 62.6295C130.982 63.0467 130.675 64.1733 131.104 64.9935C131.494 65.7342 132.361 65.9215 133.51 65.4674C137.577 63.864 141.735 64.0002 145.927 64.8062C146.556 64.9282 147.156 65.1978 147.781 65.3567C149.548 65.8023 150.614 65.1751 150.95 63.3929C151.177 62.1811 151.245 60.9409 151.39 59.715C151.433 59.3574 151.442 58.9856 151.553 58.6508C152.028 57.2233 151.783 56.633 150.33 56.2017C148.8 55.7476 147.235 55.4042 145.691 54.9956C145.412 54.9218 145.156 54.76 144.889 54.638C145.062 54.3968 145.188 54.0874 145.415 53.9257C146.718 53.0034 148.026 52.081 149.377 51.2297C149.966 50.8579 150.108 50.4719 149.772 49.9015C149.081 48.7295 148.484 47.4808 147.645 46.4223C146.268 44.6826 144.479 43.556 142.102 43.3517L142.108 43.3488ZM114.173 54.3031C114.552 53.9654 114.765 53.7185 115.03 53.5539C116.272 52.7706 117.518 51.9931 118.786 51.2524C119.29 50.9601 119.495 50.6167 119.307 50.0548C118.758 48.406 118.084 46.8224 116.838 45.5567C114.799 43.485 112.24 43.329 109.942 45.1168C108.431 46.2889 107.43 47.8441 106.66 49.544C105.334 52.467 104.64 55.5433 104.689 58.7643C104.7 59.4624 104.458 59.7661 103.764 59.9136C103.048 60.0669 102.288 60.2854 101.7 60.6912C101.341 60.9381 101.145 61.5851 101.102 62.0704C101.048 62.6664 101.518 63.075 102.084 63.2028C102.493 63.2964 102.954 63.3077 103.366 63.2254C106.116 62.6721 108.861 62.7487 111.585 63.3418C113.32 63.7192 115.032 64.213 116.753 64.6501C117.982 64.9622 118.738 64.5791 119.19 63.3872C119.352 62.9559 119.469 62.5018 119.566 62.0506C119.842 60.7423 120.106 59.434 120.359 58.1229C120.496 57.4163 120.291 56.8345 119.603 56.5195C118.713 56.1108 117.814 55.7192 116.909 55.3503C116.062 55.0041 115.2 54.6976 114.171 54.3059L114.173 54.3031ZM160.565 65.6377C157.952 65.8164 155.551 66.4323 153.543 68.0981C149.943 71.0836 149.661 75.6044 153.142 78.7459C154.707 80.1563 156.638 80.758 158.708 81.0304C162.36 81.51 165.52 80.548 168.071 77.8832C170.588 75.2525 170.576 71.3986 168.11 68.7338C166.063 66.5202 163.392 65.8165 160.565 65.6405V65.6377ZM141.448 79.1035C141.889 78.9332 142.639 78.7431 143.279 78.3656C143.913 77.991 144.064 77.3043 143.859 76.5863C143.649 75.8569 143.123 75.4852 142.386 75.4171C142.082 75.3887 141.769 75.4256 141.459 75.4426C138.644 75.5958 136.678 74.0208 136.26 71.2936C136.206 70.9417 136.107 70.587 135.979 70.2549C135.726 69.6022 135.268 69.1538 134.523 69.1936C133.777 69.2361 133.191 69.6561 133.061 70.3684C132.907 71.2141 132.833 72.1081 132.944 72.9538C133.038 73.6717 132.93 74.1684 132.424 74.6849C130.299 76.853 127.85 78.5728 125.06 79.7165C122.265 80.863 119.33 80.7864 116.471 79.9321C115.746 79.7165 115.183 78.8992 114.594 78.3089C114.119 77.8293 114.483 77.2503 114.483 76.7055C114.483 76.223 114.247 75.6469 113.923 75.2808C113.545 74.8495 112.953 74.7615 112.35 75.0226C111.145 75.5504 110.377 77.0488 110.772 78.3685C111.347 80.2954 112.493 81.8449 114.259 82.8296C116.614 84.1464 119.242 84.0443 121.815 83.9988C122.987 83.9761 124.204 83.7633 125.311 83.3773C128.877 82.14 131.952 80.0797 134.642 77.449C135.066 77.0347 135.359 76.9467 135.882 77.3014C137.452 78.3685 139.241 78.8424 141.448 79.095V79.1035ZM182.496 67.0311C182.959 66.4975 183.266 66.0946 183.625 65.7427C184.25 65.1297 184.95 64.5876 185.544 63.9463C186.685 62.7231 186.389 61.1112 184.953 60.5153C183.903 60.0782 183.056 60.5862 182.353 61.2446C181.187 62.3344 179.95 63.4014 179.034 64.6841C177.541 66.7728 176.207 68.9835 174.948 71.2255C174.265 72.4401 174.669 73.598 175.647 74.1173C176.631 74.6395 177.664 74.2365 178.426 73.0219C178.756 72.4969 179.086 71.9747 179.373 71.427C179.629 70.9417 179.956 70.7459 180.502 70.9105C181.093 71.0864 181.702 71.2141 182.296 71.3816C183.263 71.654 184.219 71.9889 185.197 72.2074C186.107 72.4089 187.003 71.9208 187.399 71.129C187.791 70.3457 187.677 69.4092 186.944 68.8133C186.42 68.3876 185.761 68.1038 185.121 67.8541C184.339 67.5476 183.514 67.3461 182.496 67.0339V67.0311ZM121.875 75.7576C122.441 75.61 123.041 75.5334 123.57 75.2979C124.475 74.8977 124.895 73.9555 124.637 73.1439C124.369 72.3096 123.647 71.9208 122.6 72.04C122.293 72.074 121.969 72.1563 121.682 72.0882C121.363 72.0116 121.079 71.7874 120.777 71.6285C120.931 71.3503 121.045 71.041 121.247 70.8055C121.406 70.621 121.67 70.5217 121.892 70.3911C122.464 70.0563 122.896 69.6277 122.74 68.9012C122.578 68.1407 121.958 67.9193 121.289 67.8455C119.901 67.6895 118.198 68.8502 117.609 70.3202C116.938 71.9889 117.319 73.5554 118.627 74.5515C119.583 75.278 120.646 75.6696 121.878 75.7548L121.875 75.7576Z" fill="white"/>
<path d="M99.7144 69.0545C102.274 69.0119 103.551 69.7668 104.325 71.6285C104.817 72.8119 104.578 73.7768 103.574 74.5799C101.213 76.4671 97.607 76.7707 94.8056 75.4057C94.6151 75.3121 94.4473 74.7388 94.5525 74.5402C95.2749 73.1865 96.0485 71.8584 96.8562 70.5558C97.5587 69.4178 98.5398 68.7594 99.7144 69.0545Z" fill="#F4A0A2"/>
<path d="M10.5542 73.3653C9.02982 73.3993 7.5879 72.8176 6.33937 71.6994C5.87011 71.2794 5.74497 70.814 6.02084 70.2521C6.39625 69.4887 6.75176 68.714 7.17552 67.9789C7.32909 67.7122 7.6135 67.4539 7.8979 67.3376C9.96551 66.4976 12.8323 67.1474 14.3425 68.7565C15.426 69.9144 15.2696 71.4923 14.0012 72.4543C13.02 73.2007 11.8994 73.3908 10.5542 73.3653Z" fill="#F4A0A2"/>
<path d="M63.1886 57.2431C63.1886 58.5486 63.1772 59.854 63.1943 61.1594C63.2056 62.008 62.7136 62.6777 61.869 62.7969C61.4679 62.8537 61.0385 62.8366 60.6403 62.7572C56.3146 61.8774 51.9774 62.2946 47.6801 62.8593C45.7632 63.1119 43.9231 63.9519 42.0489 64.528C41.9494 64.5592 41.8555 64.599 41.756 64.6302C40.6582 64.9651 39.7709 64.6614 39.4381 63.8384C39.0997 63.0069 39.5604 62.0818 40.6184 61.6305C41.6621 61.185 42.7315 60.8047 43.798 60.4187C44.4066 60.1974 44.6398 59.9533 44.4919 59.1786C43.5108 54.0051 43.5875 48.9082 46.1045 44.1065C47.1397 42.1313 48.6414 40.5904 50.7886 39.8071C53.3568 38.8706 55.5637 39.6851 57.529 41.3481C59.2581 42.8124 60.3958 44.7082 61.2945 46.7628C61.5504 47.3446 61.4395 47.7504 60.9674 48.1903C59.7046 49.368 58.4732 50.5826 57.2702 51.8228C57.0341 52.064 56.7867 52.5947 56.8976 52.799C57.0512 53.08 57.5347 53.3155 57.8873 53.3325C59.2524 53.4006 60.6233 53.3978 61.9912 53.3723C62.7279 53.3581 63.109 53.5936 63.0862 54.3825C63.0578 55.3361 63.0805 56.2896 63.0805 57.2431C63.1175 57.2431 63.1545 57.2431 63.1914 57.2431H63.1886Z" fill="black"/>
<path d="M41.2527 92.2458C37.8598 92.3167 35.121 91.1447 33.0733 88.4203C32.0238 87.0241 31.5972 85.4377 31.529 83.7236C31.4749 82.3841 31.4408 82.3926 30.1496 82.6565C27.6838 83.1645 25.383 82.8353 23.3268 81.2574C21.3587 79.7477 21.0857 77.0914 22.7807 75.2979C23.068 74.9914 23.4718 74.7275 23.87 74.6054C24.7403 74.3415 25.5281 75.0879 25.4058 75.9903C25.3859 76.1436 25.3404 76.294 25.2948 76.4387C24.7744 78.0875 25.255 79.0042 27.0269 79.2312C28.1531 79.3759 29.359 79.3107 30.4738 79.0779C35.1067 78.1159 39.4467 76.2855 43.6303 74.1485C46.0506 72.9112 48.2575 71.2539 50.5299 69.7356C50.7375 69.5965 50.8115 69.1056 50.7802 68.7962C50.6892 67.9477 50.7091 67.1418 51.2352 66.4294C51.9093 65.5185 53.0583 65.5724 53.5645 66.5799C53.8489 67.1446 54.0167 67.786 54.1361 68.4131C54.3694 69.6278 55.0206 70.5302 56.0189 71.2255C56.3744 71.4752 56.7384 71.7448 57.0086 72.0797C57.8789 73.1581 57.3357 74.5941 55.9506 74.7416C55.1714 74.8239 55.0576 75.1702 55.0292 75.8342C54.8671 79.6257 54.1475 83.2752 51.7927 86.3827C50.0749 88.6473 48.0641 90.6367 45.2713 91.5164C43.983 91.9223 42.5951 92.0102 41.2527 92.2401V92.2458ZM41.0166 88.8176C42.342 88.531 43.8294 88.5338 44.9613 87.901C48.4367 85.957 50.4787 82.8751 51.2153 78.9588C51.403 77.9598 51.1954 77.8208 50.1858 78.1131C47.2621 78.9616 45.1092 80.9084 43.1468 83.0936C42.0803 84.2798 41.3892 84.5012 39.9956 83.6952C38.5253 82.8438 37.0037 82.6707 35.3712 83.0709C34.191 83.3603 34.0402 83.5306 34.5863 84.6289C35.8234 87.1149 37.8171 88.7722 41.0166 88.8204V88.8176Z" fill="black"/>
<path d="M24.2993 41.0331C26.859 41.0757 28.4943 42.5968 29.7456 44.5833C30.3571 45.551 30.7155 46.6777 31.1961 47.7305C31.4606 48.3095 31.2217 48.5989 30.6955 48.8827C29.6745 49.4304 28.6763 50.0292 27.715 50.6763C26.6343 51.4028 26.603 51.9987 27.6183 52.7848C28.8811 53.7639 30.1779 54.7033 31.4947 55.6085C31.981 55.9434 32.2285 56.3152 32.1318 56.8884C31.873 58.4095 31.6966 59.9505 31.3184 61.4404C30.9088 63.0467 29.8566 63.7079 28.2724 63.2482C23.904 61.9825 19.4303 61.7668 14.9311 61.6845C14.4476 61.676 13.9556 61.5681 13.4863 61.4376C12.7668 61.2333 12.3459 60.7395 12.343 59.9704C12.3402 59.2297 12.7867 58.6536 13.5489 58.4606C14.0722 58.3301 14.6154 58.2478 15.1529 58.2052C15.7672 58.157 16.0545 57.9243 15.9151 57.2744C15.4004 54.8679 15.7871 52.4925 16.2905 50.1484C16.9105 47.2566 18.0311 44.589 20.3404 42.5798C21.478 41.5922 22.92 41.0388 24.3022 41.0303L24.2993 41.0331Z" fill="black"/>
<path d="M69.6446 75.9421C67.0309 75.8967 64.6533 75.2071 62.7763 73.2744C61.1296 71.5774 61.0329 69.5341 62.1762 67.4709C63.2853 65.4731 65.0287 64.6359 67.1191 64.3266C69.8607 63.9207 72.4915 64.284 74.8065 65.9215C76.3935 67.0424 77.4998 68.5068 77.369 70.5728C77.2353 72.704 75.9214 74.0407 74.1353 74.9573C72.7389 75.6725 71.2344 76.0215 69.6446 75.9421ZM68.7061 67.1162C67.4006 67.0339 66.081 67.5873 64.8325 68.3535C63.9594 68.8899 63.729 69.7044 64.2608 70.587C64.4941 70.9729 64.8211 71.3333 65.1766 71.6143C67.2613 73.2688 70.7623 73.51 73.0745 72.1847C74.7041 71.251 74.852 69.7583 73.3816 68.5749C72.0904 67.5334 70.5604 67.1219 68.7089 67.119L68.7061 67.1162Z" fill="black"/>
<path d="M54.722 31.109C56.5308 30.9898 58.6752 31.1856 60.6774 32.1845C61.1352 32.4144 61.5903 32.6755 61.9828 33.0018C62.7108 33.6035 62.8559 34.5485 62.398 35.2977C61.9913 35.9646 61.1466 36.1888 60.265 35.8568C59.3065 35.4935 58.3708 34.8777 57.3925 34.8011C55.45 34.6535 53.482 34.7244 51.5338 34.8493C49.3695 34.9884 47.373 35.7943 45.4334 36.7337C45.2713 36.8131 45.1091 36.8926 44.9413 36.9607C43.8862 37.4063 42.9505 37.1622 42.5154 36.3335C42.0717 35.485 42.4443 34.5258 43.4511 33.944C46.534 32.1561 50.0322 31.248 54.7248 31.1118L54.722 31.109Z" fill="black"/>
<path d="M25.9347 32.3776C27.5387 32.6642 29.5665 32.9963 31.5801 33.4077C32.0323 33.5014 32.4902 33.7994 32.84 34.1172C33.3946 34.6224 33.5993 35.2751 33.2296 36.0044C32.8883 36.677 32.2058 37.0317 31.4237 36.8898C30.5875 36.7366 29.7627 36.5181 28.9294 36.3563C25.9091 35.7717 22.9456 35.7717 20.0987 37.1793C19.1801 37.6334 18.4037 37.4035 17.9202 36.6657C17.4765 35.9902 17.6159 35.2041 18.4094 34.5543C19.5697 33.6064 20.9463 33.0786 22.4109 32.8175C23.4234 32.6387 24.4529 32.5564 25.9347 32.3748V32.3776Z" fill="black"/>
<path d="M28.3322 69.5085C28.4772 67.3546 30.1182 65.8164 32.2199 65.9555C33.0618 66.0094 33.6363 66.4209 33.7898 67.085C33.9633 67.8228 33.6448 68.4188 32.8542 68.836C32.7404 68.8956 32.5982 68.9239 32.51 69.0091C32.3195 69.1964 31.9953 69.4262 32.0152 69.6079C32.0465 69.8945 32.2598 70.235 32.5015 70.4053C32.7546 70.5841 33.1272 70.6153 33.4542 70.6636C34.407 70.8083 35.064 71.4099 35.1123 72.2131C35.1664 73.0758 34.5208 73.8505 33.568 74.0662C32.0209 74.4209 29.8878 73.3965 29.1 71.8158C28.7417 71.0978 28.5824 70.2776 28.3322 69.5057V69.5085Z" fill="black"/>
<path d="M142.108 43.3489C144.485 43.5532 146.274 44.6827 147.651 46.4195C148.49 47.478 149.084 48.7267 149.778 49.8988C150.114 50.4663 149.968 50.8551 149.383 51.2269C148.032 52.0783 146.723 52.9977 145.421 53.9229C145.191 54.0847 145.068 54.394 144.895 54.6352C145.162 54.7572 145.418 54.919 145.697 54.9928C147.241 55.4014 148.805 55.7477 150.335 56.1989C151.791 56.6303 152.036 57.2205 151.558 58.648C151.447 58.9829 151.439 59.3546 151.396 59.7122C151.251 60.9382 151.183 62.1783 150.955 63.3901C150.62 65.1723 149.553 65.7995 147.787 65.3539C147.161 65.1979 146.564 64.9254 145.933 64.8034C141.741 63.9974 137.583 63.8584 133.516 65.4646C132.367 65.9187 131.497 65.7314 131.11 64.9907C130.68 64.1705 130.987 63.0439 132.068 62.6267C133.567 62.0478 133.521 61.0971 133.357 59.786C132.822 55.5802 133.553 51.5703 135.66 47.8612C136.553 46.289 137.731 44.9438 139.42 44.1918C140.273 43.8115 141.212 43.6213 142.113 43.3461L142.108 43.3489Z" fill="black"/>
<path d="M114.174 54.3004C115.203 54.692 116.065 54.9985 116.912 55.3447C117.82 55.7136 118.715 56.1081 119.606 56.5139C120.294 56.8289 120.501 57.4107 120.362 58.1173C120.109 59.4284 119.845 60.7396 119.569 62.045C119.472 62.4962 119.355 62.9503 119.193 63.3816C118.744 64.5735 117.985 64.9567 116.756 64.6445C115.032 64.2075 113.323 63.7137 111.588 63.3362C108.864 62.7431 106.122 62.6665 103.369 63.2199C102.957 63.3022 102.496 63.288 102.086 63.1972C101.518 63.0695 101.051 62.6608 101.105 62.0648C101.148 61.5767 101.347 60.9297 101.702 60.6856C102.291 60.2798 103.051 60.0613 103.767 59.9081C104.461 59.7605 104.703 59.454 104.692 58.7587C104.643 55.5405 105.34 52.4642 106.662 49.5384C107.433 47.8385 108.434 46.2833 109.944 45.1113C112.242 43.3234 114.802 43.4795 116.841 45.5511C118.087 46.8168 118.758 48.4004 119.31 50.0492C119.498 50.6111 119.293 50.9517 118.789 51.2468C117.521 51.9875 116.275 52.7651 115.032 53.5483C114.768 53.7158 114.555 53.9627 114.176 54.2975L114.174 54.3004Z" fill="black"/>
<path d="M160.568 65.6349C163.395 65.8109 166.066 66.5147 168.113 68.7282C170.579 71.393 170.593 75.244 168.074 77.8776C165.522 80.5424 162.363 81.5044 158.711 81.0248C156.641 80.7524 154.709 80.1508 153.145 78.7403C149.664 75.6016 149.946 71.078 153.546 68.0925C155.554 66.4267 157.954 65.8109 160.568 65.6321V65.6349ZM159.937 77.6108C161.902 77.6023 163.756 77.1851 165.238 75.7321C166.873 74.1259 166.78 72.0911 165.013 70.6438C162.405 68.5097 157.545 68.8361 155.264 71.2937C153.797 72.8744 153.924 74.8836 155.614 76.2316C156.862 77.2277 158.262 77.818 159.937 77.608V77.6108Z" fill="black"/>
<path d="M141.448 79.1035C139.238 78.851 137.452 78.377 135.882 77.31C135.359 76.9553 135.066 77.0432 134.642 77.4576C131.952 80.0854 128.874 82.1486 125.311 83.3859C124.204 83.769 122.987 83.9847 121.815 84.0074C119.242 84.0557 116.614 84.155 114.259 82.8382C112.493 81.8535 111.349 80.304 110.772 78.377C110.38 77.0574 111.145 75.559 112.351 75.0312C112.953 74.7672 113.542 74.858 113.923 75.2894C114.245 75.6555 114.484 76.2316 114.484 76.714C114.484 77.2589 114.117 77.8378 114.594 78.3174C115.18 78.9077 115.746 79.7222 116.471 79.9407C119.33 80.7949 122.265 80.8744 125.06 79.725C127.85 78.5785 130.302 76.8588 132.424 74.6934C132.927 74.1798 133.035 73.6803 132.944 72.9623C132.833 72.1166 132.907 71.2199 133.061 70.377C133.192 69.6647 133.777 69.2418 134.523 69.2021C135.268 69.1595 135.723 69.6108 135.979 70.2635C136.11 70.5955 136.206 70.9503 136.26 71.3022C136.675 74.0294 138.644 75.6044 141.459 75.4512C141.769 75.4341 142.079 75.3972 142.386 75.4256C143.123 75.4937 143.649 75.8627 143.859 76.5948C144.067 77.3128 143.916 77.9996 143.279 78.3742C142.639 78.7516 141.886 78.9418 141.448 79.112V79.1035Z" fill="black"/>
<path d="M182.496 67.0311C183.517 67.3433 184.339 67.5476 185.121 67.8512C185.758 68.101 186.42 68.3848 186.944 68.8105C187.68 69.4064 187.794 70.3429 187.399 71.1262C187.003 71.9151 186.11 72.4061 185.197 72.2046C184.216 71.9861 183.264 71.6512 182.297 71.3788C181.702 71.2113 181.094 71.0836 180.502 70.9077C179.956 70.7459 179.629 70.9417 179.373 71.4242C179.086 71.9719 178.753 72.494 178.426 73.0191C177.664 74.2337 176.628 74.6367 175.647 74.1145C174.669 73.5951 174.265 72.4401 174.948 71.2227C176.208 68.9836 177.541 66.77 179.034 64.6813C179.953 63.3986 181.19 62.3287 182.353 61.2418C183.056 60.5834 183.903 60.0754 184.953 60.5124C186.389 61.1084 186.682 62.7203 185.544 63.9435C184.95 64.582 184.25 65.1269 183.625 65.7399C183.266 66.0918 182.959 66.4947 182.496 67.0283V67.0311Z" fill="black"/>
<path d="M121.875 75.7577C120.647 75.6725 119.58 75.2809 118.624 74.5544C117.316 73.5583 116.935 71.9918 117.606 70.3231C118.198 68.8531 119.899 67.6924 121.286 67.8484C121.955 67.9222 122.572 68.1436 122.737 68.9041C122.893 69.6278 122.461 70.0592 121.889 70.394C121.668 70.5246 121.403 70.6239 121.244 70.8084C121.042 71.0439 120.928 71.3532 120.775 71.6314C121.073 71.7903 121.358 72.0145 121.679 72.0911C121.966 72.1592 122.29 72.0769 122.598 72.0429C123.647 71.9265 124.369 72.3125 124.634 73.1468C124.893 73.9584 124.472 74.9006 123.567 75.3008C123.038 75.5335 122.441 75.6129 121.872 75.7605L121.875 75.7577Z" fill="black"/>
<path d="M41.0166 88.8205C37.8171 88.7722 35.8234 87.1149 34.5863 84.6289C34.0402 83.5335 34.1938 83.3632 35.3712 83.0709C37.0037 82.6679 38.5253 82.8439 39.9956 83.6952C41.3892 84.5012 42.0803 84.2798 43.1468 83.0936C45.1092 80.9113 47.2593 78.9616 50.1858 78.1131C51.1983 77.8208 51.4059 77.9599 51.2153 78.9588C50.4787 82.8723 48.4339 85.957 44.9613 87.901C43.8294 88.5338 42.342 88.531 41.0166 88.8176V88.8205Z" fill="white"/>
<path d="M68.706 67.1163C70.5575 67.122 72.0876 67.5335 73.3788 68.5721C74.8491 69.7555 74.7012 71.2483 73.0716 72.1819C70.7623 73.5072 67.2613 73.2688 65.1738 71.6115C64.8183 71.3306 64.4912 70.9702 64.258 70.5842C63.7261 69.7016 63.9565 68.8871 64.8296 68.3508C66.081 67.5845 67.3978 67.0312 68.7032 67.1135L68.706 67.1163Z" fill="#F4A0A2"/>
<path d="M159.937 77.6108C158.262 77.8208 156.862 77.2333 155.614 76.2344C153.924 74.8835 153.796 72.8771 155.264 71.2964C157.545 68.836 162.405 68.5125 165.013 70.6466C166.779 72.091 166.876 74.1286 165.238 75.7349C163.756 77.1879 161.905 77.6051 159.937 77.6136V77.6108Z" fill="#F4A0A2"/>
<path d="M159.937 77.6108C158.262 77.8208 156.862 77.2333 155.614 76.2344C153.924 74.8835 153.796 72.8771 155.264 71.2964C157.545 68.836 162.405 68.5125 165.013 70.6466C166.779 72.091 166.876 74.1286 165.238 75.7349C163.756 77.1879 161.905 77.6051 159.937 77.6136V77.6108Z" fill="#F4A0A2"/>
</g>
<defs>
<clipPath id="clip0_1132_6377">
<rect width="215" height="99" fill="white"/>
</clipPath>
</defs>
</svg>
