<svg width="112" height="30" viewBox="0 0 112 30" fill="none" xmlns="http://www.w3.org/2000/svg">
<g clip-path="url(#clip0_1143_5127)">
<path d="M3.36954 0.776398H0V24.8254H3.36954V0.776398Z" fill="black"/>
<path d="M15.2914 0.776398H11.9219V24.8254H15.2914V0.776398Z" fill="black"/>
<path d="M23.0693 0H19.6997V28.7073H23.0693V0Z" fill="black"/>
<path d="M34.4774 5.69098H30.8472V13.451H34.4774V5.69098Z" fill="black"/>
<path d="M34.4774 21.4635H30.8472V28.7035H34.4774V21.4635Z" fill="black"/>
<path d="M54.1773 0.776398H50.5471V8.53647H54.1773V0.776398Z" fill="black"/>
<path d="M13.7351 13.191V9.82916H0.774434V13.191H13.7351Z" fill="black"/>
<path d="M54.1733 3.87813V0.516327L30.8434 0.516327V3.87813L54.1733 3.87813Z" fill="black"/>
<path d="M54.1733 8.79271V5.43091L30.8434 5.43091V8.79271L54.1733 8.79271Z" fill="black"/>
<path d="M54.1733 14.2236V10.8618L30.8434 10.8618V14.2236L54.1733 14.2236Z" fill="black"/>
<path d="M56.7686 19.3944V16.0326H28.7733V19.3944H56.7686Z" fill="black"/>
<path d="M54.4341 28.7073V25.3455H30.8473V28.7073H54.4341Z" fill="black"/>
<path d="M26.6995 15V11.6382H21.7736V15H26.6995Z" fill="black"/>
<path d="M13.7388 24.8292V21.4674H0.778097V24.8292H13.7388Z" fill="black"/>
<path d="M74.3179 3.87813H84.2425V0.516327H60.9125V3.87813H70.8372C69.0278 10.2767 60.395 12.6708 60.395 12.6708L62.2082 15.2563C71.0212 12.1545 72.5775 8.01633 72.5775 8.01633C72.5775 8.01633 74.1339 12.1545 82.9468 15.2563L84.76 12.6708C84.76 12.6708 76.1272 10.2767 74.3179 3.87813Z" fill="black"/>
<path d="M85.5381 20.1747V16.8129H59.6167V20.1747H85.5381Z" fill="black"/>
<path d="M74.3944 19.1382H70.7642V30H74.3944V19.1382Z" fill="black"/>
<path d="M94.8724 19.1382H91.2422V28.7073H94.8724V19.1382Z" fill="black"/>
<path d="M112 18.8858H108.37V28.7073H112V18.8858Z" fill="black"/>
<path d="M97.0844 3.87813H103.425V0.516327H87.6121V3.87813H93.8222C93.8222 3.87813 94.0905 9.82535 86.5732 14.4799L88.9078 16.6599C88.9078 16.6599 92.9827 15.1606 95.4514 9.41995C97.9201 15.1606 101.995 16.6599 101.995 16.6599L104.329 14.4799C96.8122 9.82535 97.0806 3.87813 97.0806 3.87813H97.0844Z" fill="black"/>
<path d="M111.977 0H108.347V17.5854H111.977V0Z" fill="black"/>
<path d="M111.95 10.0854V6.7236L102.877 6.7236V10.0854H111.95Z" fill="black"/>
<path d="M111.459 28.7035V25.3416H91.2422V28.7035H111.459Z" fill="black"/>
<path d="M111.977 21.9187V18.5569H91.2384V21.9187H111.977Z" fill="black"/>
</g>
<defs>
<clipPath id="clip0_1143_5127">
<rect width="112" height="30" fill="white"/>
</clipPath>
</defs>
</svg>
