<svg width="121" height="103" viewBox="0 0 121 103" fill="none" xmlns="http://www.w3.org/2000/svg">
<g clip-path="url(#clip0_1132_6375)">
<path d="M10.6164 15.9421C10.6164 15.3316 10.6051 14.7239 10.6193 14.1133C10.6363 13.3373 10.6307 12.5556 10.7188 11.7882C10.8382 10.7697 11.4808 10.1563 12.456 9.94234C13.3942 9.73978 14.1107 10.182 14.6879 10.881C15.1883 11.4858 15.6688 12.1049 16.1578 12.7183C16.2459 12.684 16.3341 12.6498 16.4222 12.6127C16.445 12.3303 16.4904 12.0507 16.4876 11.7682C16.4734 10.4216 16.4421 9.07504 16.4336 7.7256C16.4336 7.44316 16.4762 7.15501 16.5359 6.87827C16.7378 5.9368 17.3406 5.39759 18.2674 5.21786C19.0123 5.07521 19.8767 5.54595 20.3458 6.28771C20.9258 7.20066 21.4717 8.14498 22.1427 8.98946C22.808 9.82537 23.0809 9.78828 23.8315 9.06934C25.8218 7.16357 28.1788 5.83409 30.6694 4.72715C36.1055 2.31641 41.8345 1.0982 47.7228 0.439169C52.8291 -0.131421 57.9383 -0.108597 63.039 0.25658C67.4658 0.573257 71.8642 1.26652 76.1915 2.28217C82.8275 3.83988 89.219 6.07374 95.2522 9.30043C100.094 11.888 104.296 15.303 108.058 19.2515C109.286 20.541 110.125 22.2043 111.143 23.6936C111.313 23.9446 111.453 24.2556 111.689 24.4211C115.641 27.2027 118.188 30.9857 119.402 35.6303C121.205 42.523 121.358 49.4557 119.371 56.3398C118.993 57.655 118.956 58.6222 119.655 59.8889C121.117 62.5364 121.222 65.5064 120.738 68.4392C120.059 72.5674 118.413 76.3162 115.524 79.3546C112.402 82.6355 108.686 85.0205 104.14 85.8593C103.483 85.982 102.804 85.9763 102.144 86.0847C101.945 86.1161 101.644 86.3044 101.615 86.4641C101.089 89.2429 99.3577 91.1972 97.2282 92.8376C95.1299 94.4552 92.7786 95.6021 90.3221 96.6121C82.455 99.8445 74.1501 100.997 65.8054 101.941C60.9066 102.498 55.9993 103.188 51.055 102.943C45.9742 102.692 40.8849 102.435 35.8354 101.879C32.8245 101.545 29.8619 100.695 26.9078 99.9586C23.0298 98.9943 19.1772 97.9301 15.3191 96.8859C12.9251 96.2383 10.9491 94.789 8.97023 93.3911C6.09009 91.3541 3.57388 88.9205 1.96464 85.7309C-0.520297 80.8067 -0.941087 75.8768 2.41671 71.121C2.9626 70.3478 3.67908 69.6831 4.37566 69.0326C4.81066 68.6275 4.9841 68.1995 5.00969 67.6118C5.13479 64.8445 5.26842 62.0743 5.45891 59.3098C5.73754 55.2329 6.5251 51.2644 8.1912 47.5071C8.41581 46.9993 8.33905 46.577 8.19405 46.0435C7.77326 44.4744 7.41502 42.8796 7.18756 41.2706C6.72128 37.9811 7.04256 34.7031 7.68796 31.4678C7.97512 30.03 8.50964 28.6377 8.99298 27.2483C9.17494 26.7262 9.14651 26.3439 8.8167 25.8903C6.8151 23.1372 5.58116 20.0617 5.18881 16.6753C5.12057 16.0819 5.18881 15.4 5.42195 14.8608C6.10431 13.3117 8.0064 13.1776 9.11239 14.5413C9.5275 15.052 9.94544 15.5569 10.3634 16.0676C10.4458 16.022 10.5283 15.9792 10.6107 15.9335L10.6164 15.9421ZM91.3741 64.602C91.4793 63.0186 90.976 61.6149 90.3022 60.2484C88.3802 56.3484 86.4668 52.4456 84.5419 48.5456C82.7792 44.9737 81.0221 41.3989 79.2195 37.847C78.8698 37.1566 78.4462 36.2608 77.8263 35.9926C74.1615 34.4035 70.4454 32.92 66.7067 31.5106C64.9723 30.8573 63.1413 30.4665 61.3643 29.9272C57.8729 28.8688 54.3332 27.973 50.7053 27.6848C47.3418 27.4166 43.947 27.3967 40.5722 27.4709C38.3914 27.5165 36.2107 27.8703 34.0471 28.1898C30.6523 28.6891 27.2718 29.2768 23.8855 29.8217C22.5095 30.0442 21.1334 30.2553 19.7544 30.4665C18.7479 30.6205 18.0513 31.1226 17.514 32.0384C15.8564 34.8628 14.9438 37.9697 14.0055 41.0623C13.3032 43.3789 12.8313 45.7668 12.1603 48.092C10.3947 54.2115 9.84309 60.4852 9.68387 66.8187C9.66681 67.4806 9.8374 67.7174 10.5454 67.7117C12.8995 67.686 15.012 68.405 16.8316 69.9398C20.107 72.7015 19.6805 77.4888 15.919 79.5029C12.8398 81.1519 9.72652 81.0007 6.64167 79.4316C6.2948 79.2547 5.90813 79.1577 5.54136 79.0265C5.54705 79.4544 5.47881 79.8966 5.56695 80.3075C6.23225 83.3886 8.03199 85.7509 10.3776 87.7251C14.8641 91.5024 20.1212 93.7734 25.7194 95.197C33.5126 97.1798 41.499 97.8017 49.5054 98.0585C54.7994 98.2268 60.0934 98.127 65.3732 97.6249C71.7533 97.02 78.0908 96.147 84.2491 94.2983C87.9168 93.1971 91.4963 91.8619 94.5897 89.5025C96.4037 88.1188 97.6717 86.4527 97.7457 83.9935C97.7883 82.5727 98.9796 80.9408 101.01 81.2689C102.519 81.5114 104.001 81.286 105.411 80.7097C110.884 78.473 114.537 74.5987 115.968 68.7644C116.488 66.639 116.474 64.5192 115.854 62.3995C115.28 60.4367 112.462 58.3683 110.003 58.7962C107.358 59.2584 106.028 61.0615 104.64 62.9501C103.645 64.2996 102.775 65.7546 101.695 67.027C99.6108 69.4777 97.0263 71.1581 93.7879 71.6973C91.6044 72.0596 90.3648 70.7729 90.7742 68.5761C91.0187 67.2609 91.1751 65.9286 91.3712 64.6048L91.3741 64.602ZM11.3159 77.6628C12.1631 77.4773 13.0616 77.4117 13.852 77.0865C16.1777 76.1336 16.5246 73.9226 14.6822 72.2308C13.2009 70.8699 9.95682 70.3478 8.18552 71.2094C7.94669 71.3264 7.71639 71.5518 7.59129 71.7828C7.14776 72.5988 6.74402 73.4376 6.34029 74.2735C6.07019 74.8326 6.18392 75.3034 6.65304 75.7313C7.97228 76.9353 9.49907 77.5658 11.3187 77.6599L11.3159 77.6628Z" fill="black"/>
<path d="M91.3741 64.5993C91.1779 65.9231 91.0215 67.2554 90.777 68.5706C90.3704 70.7674 91.6072 72.0541 93.7908 71.6918C97.0291 71.1526 99.6136 69.475 101.698 67.0215C102.781 65.7491 103.648 64.2941 104.643 62.9446C106.033 61.0588 107.361 59.2529 110.005 58.7907C112.468 58.3628 115.282 60.4312 115.857 62.394C116.476 64.5137 116.494 66.6306 115.97 68.7589C114.54 74.5932 110.887 78.4647 105.414 80.7042C104.003 81.2805 102.522 81.5088 101.012 81.2634C98.9796 80.9353 97.7911 82.5701 97.7485 83.988C97.6745 86.4501 96.4065 88.1133 94.5925 89.497C91.4992 91.8564 87.9196 93.1916 84.2519 94.2928C78.0936 96.1415 71.7561 97.0145 65.376 97.6194C60.0991 98.1186 54.8022 98.2213 49.5083 98.053C41.499 97.7962 33.5125 97.1743 25.7222 95.1915C20.124 93.7679 14.867 91.4941 10.3804 87.7196C8.03481 85.7454 6.23223 83.3832 5.56977 80.302C5.48163 79.8911 5.54702 79.4489 5.54418 79.021C5.91095 79.1551 6.29762 79.2521 6.64449 79.4261C9.72934 80.9924 12.8426 81.1436 15.9218 79.4974C19.6833 77.4833 20.1098 72.696 16.8344 69.9344C15.0148 68.3995 12.8995 67.6805 10.5482 67.7062C9.84022 67.7148 9.66963 67.4751 9.68669 66.8132C9.84307 60.4825 10.3946 54.2089 12.1631 48.0865C12.8341 45.7585 13.3061 43.3734 14.0083 41.0568C14.9466 37.9642 15.8592 34.8573 17.5168 32.0329C18.0542 31.1171 18.7507 30.6179 19.7572 30.461C21.1333 30.2498 22.5123 30.0387 23.8884 29.8162C27.2746 29.2713 30.658 28.6836 34.0499 28.1843C36.2164 27.8648 38.3971 27.5139 40.575 27.4654C43.9527 27.3912 47.3446 27.4112 50.7081 27.6793C54.336 27.9703 57.8786 28.8662 61.3671 29.9217C63.1441 30.461 64.978 30.8518 66.7095 31.5051C70.4483 32.9145 74.1614 34.398 77.8291 35.9871C78.449 36.2553 78.8726 37.1511 79.2223 37.8415C81.0277 41.3935 82.782 44.9682 84.5447 48.5401C86.4696 52.4372 88.383 56.3429 90.305 60.2429C90.9789 61.6094 91.4793 63.0102 91.3769 64.5965L91.3741 64.5993ZM58.2596 65.6949C59.8859 65.8803 61.7538 66.0943 63.6246 66.2997C64.0596 66.3482 64.5032 66.4138 64.9325 66.3739C65.9646 66.2769 66.5446 65.441 66.4337 64.4025C66.3484 63.5894 66.3342 62.7649 66.3285 61.9432C66.3143 60.4939 66.3655 59.0418 66.3228 57.5925C66.2887 56.4485 66.192 56.4085 65.0149 56.4057C63.6474 56.4028 62.277 56.4313 60.9094 56.3629C60.5256 56.3429 59.9598 56.1147 59.8375 55.8265C59.7238 55.5583 59.9939 54.9935 60.2583 54.7196C61.5321 53.3987 62.8484 52.1177 64.1791 50.851C64.5885 50.4601 64.7306 50.1007 64.5003 49.5529C63.5564 47.3019 62.3139 45.2592 60.4545 43.653C57.3099 40.937 53.5967 40.9969 50.6057 43.7956C49.1585 45.1508 48.2004 46.834 47.5294 48.6799C45.9031 53.1448 45.8917 57.7152 46.7106 62.3284C46.9266 63.5409 46.9579 63.5067 45.7723 63.9375C44.6322 64.3511 43.4949 64.7791 42.3975 65.2898C41.5644 65.6749 41.1948 66.6135 41.4478 67.3696C41.7123 68.1627 42.4828 68.5649 43.4636 68.4023C43.7167 68.3595 43.9612 68.2682 44.2086 68.1912C46.1817 67.5835 48.1179 66.7619 50.1366 66.4224C52.7239 65.9859 55.3766 65.9345 58.2652 65.6977L58.2596 65.6949ZM42.9775 97.3483C45.0047 97.297 46.9266 97.2142 48.678 96.3355C51.0549 95.143 52.957 93.3656 54.5179 91.2316C56.9176 87.9479 57.6909 84.1477 57.8615 80.1793C57.8928 79.4604 57.9866 79.0609 58.8509 78.9811C60.2811 78.8498 60.8582 77.3235 59.9626 76.1909C59.7124 75.8713 59.3798 75.6032 59.0414 75.3721C57.9269 74.6103 57.1536 73.6403 56.9176 72.2652C56.8124 71.6575 56.6503 71.0441 56.3944 70.485C55.8229 69.2411 54.4269 69.1298 53.8185 70.3452C53.4745 71.0327 53.5484 71.9257 53.4148 72.7245C53.3608 73.0526 53.3664 73.5262 53.1589 73.6774C51.47 74.9099 49.8182 76.2308 48.0014 77.2407C42.9064 80.0709 37.5641 82.3333 31.8635 83.6257C30.7347 83.8824 29.4923 83.8796 28.3408 83.7169C26.5496 83.463 26.0463 82.4987 26.5951 80.8269C26.6121 80.7784 26.6263 80.7271 26.6406 80.6786C26.8225 80.0623 26.8112 79.4917 26.2425 79.0695C25.6654 78.6387 25.0882 78.7243 24.5139 79.0923C22.6971 80.2592 22.1995 83.3033 23.6097 84.9409C25.0285 86.587 26.8566 87.4943 29.0288 87.5399C30.0495 87.5599 31.0788 87.4001 32.0966 87.2575C33.032 87.1234 33.0917 87.1861 33.177 88.0991C33.2822 89.2003 33.3192 90.3586 33.6945 91.3771C34.9199 94.7037 38.2606 97.6165 42.9718 97.3512L42.9775 97.3483ZM25.8758 43.3477C23.9623 43.3534 22.626 43.9868 21.4375 44.9596C19.3734 46.6514 18.2447 48.9623 17.5396 51.4472C16.7093 54.3658 16.1521 57.3528 16.7406 60.4169C16.8799 61.1387 16.661 61.4811 15.899 61.5124C15.3617 61.5353 14.8186 61.6323 14.2955 61.7635C13.4738 61.9661 13.0018 62.5823 12.9876 63.3783C12.9763 64.1115 13.4368 64.7277 14.2472 64.9388C14.793 65.0815 15.3617 65.187 15.9246 65.1956C20.5505 65.2669 25.1451 65.5094 29.6373 66.8132C31.4086 67.3268 32.5231 66.6335 32.9666 64.8533C33.3533 63.3041 33.5381 61.7036 33.8025 60.1231C33.9049 59.5211 33.6604 59.1245 33.1429 58.7679C31.7412 57.8008 30.368 56.7908 29.0203 55.7495C28.0081 54.9678 28.0167 54.3173 29.063 53.6098C30.1291 52.888 31.2522 52.2461 32.3696 51.6042C32.7733 51.3731 33.0377 51.1477 32.8842 50.6342C32.3355 48.7997 31.528 47.1022 30.2372 45.6786C28.9805 44.2949 27.5049 43.3021 25.8729 43.3506L25.8758 43.3477ZM73.2658 80.2449C74.9092 80.3305 76.4644 79.9568 77.9088 79.2264C79.7455 78.2963 81.1216 76.9326 81.3319 74.753C81.5537 72.4535 80.3425 70.8444 78.5883 69.612C76.1744 67.9173 73.4364 67.5664 70.5933 67.9715C68.3614 68.2911 66.5161 69.2069 65.3504 71.3437C64.1819 73.4863 64.2956 75.6402 65.9845 77.4005C67.9719 79.4746 70.4938 80.1993 73.2687 80.2421L73.2658 80.2449ZM44.5298 37.4364C44.5128 38.9285 45.8121 39.6589 47.2081 39.074C48.3738 38.5862 49.4969 37.9556 50.7052 37.6304C54.9245 36.4978 59.1552 35.6362 63.3403 37.8529C64.2331 38.3265 65.1628 38.0127 65.6006 37.2966C66.1153 36.455 65.993 35.3766 65.0946 34.8288C64.0312 34.1783 62.8826 33.5279 61.6856 33.2625C58.0691 32.4666 54.4383 32.7462 50.9014 33.7618C49.1585 34.2611 47.4981 35.077 45.8206 35.7931C45.0672 36.1126 44.564 36.6889 44.5298 37.4364ZM108.55 68.6248C108.726 68.2454 108.857 67.9715 108.985 67.6948C109.519 66.545 110.057 65.3982 110.58 64.2456C110.81 63.7406 110.756 63.1843 110.264 62.9503C109.88 62.7677 109.332 62.782 108.905 62.8904C108.601 62.9675 108.325 63.3184 108.123 63.6065C105.928 66.6991 104.157 70.0285 102.633 73.4948C102.153 74.5904 102.48 75.5604 103.341 75.9769C104.197 76.3934 105.144 76.0254 105.707 74.9698C106.105 74.2195 106.426 73.4235 106.733 72.6275C106.918 72.1482 107.111 71.9742 107.688 72.0484C108.885 72.2024 110.102 72.2538 111.31 72.2509C112.192 72.2509 112.874 71.5463 112.988 70.7046C113.085 69.9743 112.604 69.1555 111.822 68.8816C111.367 68.7218 110.867 68.6705 110.384 68.6334C109.821 68.5935 109.255 68.6248 108.553 68.6248H108.55ZM27.0073 34.147C25.3213 34.4437 23.7803 34.5549 22.3531 35.02C21.1874 35.3966 20.0785 36.0927 19.0948 36.843C18.3982 37.3765 18.4551 38.1782 18.9043 38.8001C19.3819 39.462 20.0899 39.6817 20.8888 39.3964C21.1788 39.2908 21.4461 39.1225 21.7389 39.0255C22.6658 38.7202 23.5927 38.2153 24.5338 38.1839C26.5041 38.1211 28.4858 38.2695 30.4533 38.4235C31.3432 38.4949 32.2132 38.8172 33.1003 38.9742C33.8964 39.1168 34.6043 38.7259 34.9625 38.027C35.3009 37.3651 35.1928 36.6091 34.5617 36.0556C34.1835 35.7246 33.7144 35.3994 33.2396 35.2996C31.1271 34.8602 28.9976 34.5064 27.0073 34.1441V34.147ZM29.805 73.472C30.0638 74.2737 30.2315 75.121 30.5983 75.8685C31.42 77.5489 33.6888 78.6473 35.3265 78.2593C36.3017 78.0282 36.9727 77.2265 36.9357 76.3421C36.8988 75.4776 36.2079 74.83 35.19 74.676C34.8374 74.6217 34.4451 74.5761 34.1636 74.3878C33.9191 74.2223 33.6831 73.8686 33.6717 73.589C33.6632 73.3693 33.9959 73.1268 34.2006 72.9185C34.2859 72.8329 34.4309 72.8101 34.5474 72.7502C35.3691 72.3223 35.7018 71.7146 35.5482 70.9329C35.4061 70.2082 34.792 69.7489 33.885 69.6947C31.6645 69.5578 29.9529 71.1811 29.805 73.4777V73.472Z" fill="white"/>
<path d="M11.3158 77.6629C9.49621 77.5716 7.96943 76.9383 6.65019 75.7343C6.18107 75.3064 6.07018 74.8328 6.33744 74.2765C6.74117 73.4406 7.14491 72.6018 7.58844 71.7859C7.71639 71.5519 7.94668 71.3265 8.18267 71.2124C9.95397 70.3508 13.198 70.8729 14.6793 72.2338C16.5246 73.9256 16.1748 76.1366 13.8491 77.0895C13.0587 77.4147 12.1631 77.4803 11.313 77.6658L11.3158 77.6629Z" fill="#F4A0A2"/>
<path d="M58.2596 65.6948C55.3709 65.9344 52.7182 65.9829 50.1309 66.4194C48.1122 66.7589 46.176 67.5806 44.2029 68.1883C43.9555 68.2653 43.711 68.3566 43.458 68.3994C42.4771 68.562 41.7037 68.1597 41.4421 67.3666C41.1919 66.6106 41.5587 65.672 42.3918 65.2868C43.4921 64.779 44.6294 64.3482 45.7666 63.9345C46.9522 63.5037 46.921 63.538 46.7049 62.3255C45.886 57.7123 45.8974 53.1418 47.5237 48.677C48.1947 46.8311 49.1529 45.1479 50.6 43.7927C53.5911 40.9911 57.3042 40.9341 60.4488 43.6501C62.3082 45.2563 63.5507 47.3018 64.4946 49.55C64.7249 50.0977 64.5828 50.4572 64.1734 50.8481C62.8456 52.1148 61.5264 53.3957 60.2526 54.7167C59.9882 54.9905 59.7181 55.5554 59.8318 55.8236C59.9541 56.1117 60.5199 56.34 60.9037 56.36C62.2684 56.4284 63.6388 56.3999 65.0093 56.4027C66.1863 56.4056 66.283 56.4455 66.3171 57.5896C66.3626 59.0389 66.3114 60.491 66.3228 61.9403C66.3313 62.762 66.3427 63.5836 66.428 64.3996C66.5389 65.438 65.9589 66.2739 64.9268 66.3709C64.4975 66.4109 64.0539 66.3453 63.6189 66.2968C61.7481 66.0914 59.8773 65.8745 58.2539 65.6919L58.2596 65.6948Z" fill="black"/>
<path d="M42.9775 97.3512C38.2663 97.6165 34.9256 94.7037 33.7002 91.3771C33.3249 90.3586 33.2879 89.2003 33.1827 88.0991C33.0946 87.1861 33.0377 87.1262 32.1023 87.2575C31.0845 87.403 30.0552 87.5627 29.0345 87.5399C26.8623 87.4943 25.0313 86.587 23.6154 84.9409C22.2052 83.3033 22.7056 80.2592 24.5196 79.0923C25.0939 78.7243 25.6682 78.6387 26.2482 79.0695C26.8168 79.4946 26.8282 80.0652 26.6463 80.6786C26.632 80.7271 26.615 80.7784 26.6008 80.8269C26.0549 82.4959 26.5553 83.4631 28.3465 83.717C29.498 83.8796 30.7433 83.8824 31.8692 83.6257C37.5697 82.3333 42.9121 80.0709 48.0071 77.2408C49.8267 76.2308 51.4757 74.9099 53.1646 73.6774C53.3721 73.5262 53.3665 73.0555 53.4205 72.7246C53.5541 71.9257 53.4802 71.0328 53.8242 70.3452C54.4326 69.1298 55.8286 69.2411 56.4001 70.485C56.656 71.0413 56.8181 71.6576 56.9233 72.2652C57.1593 73.6404 57.9326 74.6104 59.0471 75.3721C59.3855 75.6032 59.7181 75.8714 59.9683 76.1909C60.8611 77.3235 60.2839 78.8498 58.8566 78.9811C57.9923 79.061 57.8956 79.4575 57.8672 80.1793C57.6995 84.1449 56.9261 87.9479 54.5236 91.2316C52.9627 93.3656 51.0578 95.143 48.6837 96.3356C46.9323 97.2143 45.0103 97.297 42.9832 97.3484L42.9775 97.3512ZM42.9803 93.6738C42.9917 93.7451 43.0002 93.8164 43.0116 93.8877C44.4616 93.5653 46.0851 93.5596 47.3247 92.8635C50.9412 90.8351 53.0594 87.5884 53.8526 83.503C54.0687 82.3903 53.8555 82.2277 52.7893 82.5416C49.6845 83.4488 47.4043 85.5343 45.3259 87.8737C44.2853 89.0434 43.4978 89.3059 42.1586 88.4957C40.3845 87.4201 38.5535 87.403 36.6315 87.9165C36.1339 88.0506 35.9861 88.2845 36.1538 88.7496C36.2932 89.1376 36.3813 89.5598 36.5917 89.9079C38.036 92.3129 40.0348 93.8078 42.9803 93.6766V93.6738Z" fill="black"/>
<path d="M25.8758 43.3505C27.5078 43.302 28.9834 44.2977 30.2401 45.6785C31.5309 47.1021 32.3412 48.7996 32.8871 50.6341C33.0406 51.1476 32.7762 51.373 32.3725 51.6041C31.2551 52.246 30.132 52.8879 29.0658 53.6097C28.0195 54.3201 28.011 54.9677 29.0232 55.7494C30.3709 56.7908 31.7441 57.8007 33.1458 58.7678C33.6604 59.1245 33.9049 59.5182 33.8054 60.123C33.541 61.7035 33.3562 63.304 32.9695 64.8532C32.5231 66.6334 31.4115 67.3295 29.6402 66.8132C25.1479 65.5094 20.5534 65.264 15.9275 65.1955C15.3674 65.187 14.7959 65.0786 14.25 64.9388C13.4369 64.7277 12.9791 64.1114 12.9905 63.3782C13.0047 62.5822 13.4738 61.966 14.2984 61.7634C14.8215 61.6351 15.3646 61.5352 15.9019 61.5124C16.6639 61.481 16.8828 61.1386 16.7435 60.4168C16.1521 57.3528 16.7122 54.3686 17.5424 51.4472C18.2475 48.9623 19.3763 46.6514 21.4404 44.9596C22.626 43.9867 23.9652 43.3534 25.8786 43.3477L25.8758 43.3505Z" fill="black"/>
<path d="M73.2659 80.2477C70.4909 80.2049 67.9719 79.4803 65.9816 77.4062C64.2928 75.643 64.1762 73.4919 65.3476 71.3494C66.5133 69.2096 68.3585 68.2938 70.5904 67.9772C73.4336 67.5692 76.1716 67.923 78.5854 69.6176C80.3425 70.8501 81.5509 72.4592 81.3291 74.7586C81.1187 76.9383 79.7426 78.302 77.9059 79.2321C76.4616 79.9624 74.9064 80.3361 73.263 80.2506L73.2659 80.2477ZM73.2289 77.3434C74.1956 77.098 75.185 76.9212 76.1204 76.5931C77.144 76.2365 78.0936 75.6687 78.1846 74.4248C78.2755 73.1781 77.3515 72.559 76.4616 71.9542C76.3763 71.8971 76.2825 71.8543 76.1887 71.8087C73.4365 70.522 70.7553 70.5676 68.1538 72.2309C67.2753 72.7929 67.0052 73.646 67.5369 74.5504C67.7927 74.984 68.1567 75.3891 68.5576 75.6972C69.9166 76.7386 71.4946 77.1637 73.2289 77.3434Z" fill="black"/>
<path d="M44.5299 37.4364C44.564 36.6889 45.0701 36.1126 45.8207 35.7931C47.4982 35.077 49.1557 34.2639 50.9015 33.7618C54.4384 32.749 58.0691 32.4665 61.6856 33.2625C62.8826 33.525 64.0313 34.1783 65.0946 34.8288C65.993 35.3766 66.1153 36.455 65.6007 37.2966C65.1628 38.0127 64.2331 38.3265 63.3404 37.8529C59.1552 35.6362 54.9217 36.4949 50.7053 37.6304C49.4969 37.9556 48.371 38.5861 47.2082 39.074C45.8122 39.6588 44.5128 38.9285 44.5299 37.4364Z" fill="black"/>
<path d="M108.55 68.6249C109.252 68.6249 109.821 68.5935 110.381 68.6334C110.864 68.6677 111.364 68.7219 111.819 68.8816C112.601 69.1555 113.082 69.9715 112.985 70.7047C112.874 71.5463 112.189 72.251 111.308 72.251C110.099 72.251 108.882 72.2025 107.685 72.0484C107.108 71.9742 106.912 72.1483 106.73 72.6276C106.426 73.4235 106.105 74.2195 105.704 74.9698C105.144 76.0254 104.197 76.3934 103.338 75.9769C102.477 75.5575 102.15 74.5904 102.63 73.4949C104.151 70.0285 105.925 66.6991 108.12 63.6065C108.325 63.3184 108.598 62.9703 108.902 62.8904C109.329 62.7792 109.877 62.7678 110.261 62.9504C110.753 63.1843 110.807 63.7406 110.577 64.2456C110.054 65.401 109.514 66.5451 108.982 67.6948C108.854 67.9715 108.723 68.2454 108.547 68.6249H108.55Z" fill="black"/>
<path d="M27.0074 34.147C28.9976 34.5093 31.1271 34.8631 33.2396 35.3024C33.7144 35.4023 34.1836 35.7275 34.5617 36.0584C35.1929 36.6119 35.3009 37.368 34.9626 38.0298C34.6044 38.7288 33.8964 39.1197 33.1003 38.977C32.2132 38.8172 31.3461 38.4977 30.4533 38.4264C28.483 38.2723 26.5013 38.124 24.5338 38.1867C23.5956 38.2153 22.6658 38.7202 21.739 39.0284C21.4461 39.1254 21.1789 39.2937 20.8889 39.3993C20.0899 39.6874 19.382 39.4677 18.9043 38.803C18.4551 38.181 18.3982 37.3794 19.0948 36.8459C20.0786 36.0955 21.1874 35.3994 22.3531 35.0228C23.7804 34.5607 25.3242 34.4494 27.0074 34.1498V34.147Z" fill="black"/>
<path d="M29.8051 73.4748C29.9557 71.1782 31.6645 69.5548 33.885 69.6918C34.792 69.7488 35.4061 70.2053 35.5483 70.9299C35.7018 71.7145 35.3692 72.3193 34.5475 72.7473C34.4337 72.8072 34.2859 72.83 34.2006 72.9156C33.9959 73.1267 33.6632 73.3692 33.6718 73.586C33.6831 73.8656 33.9191 74.2223 34.1636 74.3849C34.4451 74.5732 34.8375 74.6188 35.19 74.673C36.205 74.8299 36.8988 75.4747 36.9357 76.3391C36.9727 77.2264 36.3017 78.0252 35.3265 78.2563C33.6888 78.6443 31.42 77.5459 30.5983 75.8656C30.2315 75.1181 30.0638 74.2708 29.8051 73.4691V73.4748Z" fill="black"/>
<path d="M42.9803 93.6738C40.0319 93.805 38.036 92.3101 36.5917 89.905C36.3841 89.557 36.296 89.1376 36.1538 88.7467C35.9861 88.2817 36.1311 88.0478 36.6315 87.9137C38.5535 87.4001 40.3816 87.4173 42.1586 88.4928C43.4978 89.303 44.2853 89.0406 45.3259 87.8709C47.4043 85.5315 49.6845 83.4459 52.7893 82.5387C53.8583 82.2277 54.0687 82.3875 53.8526 83.5002C53.0594 87.5884 50.9412 90.8322 47.3247 92.8607C46.0851 93.5568 44.4616 93.5625 43.0116 93.8849C43.0002 93.8136 42.9917 93.7422 42.9803 93.6709V93.6738Z" fill="white"/>
<path d="M73.2289 77.3434C71.4945 77.1637 69.9166 76.7386 68.5575 75.6973C68.1566 75.392 67.7927 74.984 67.5368 74.5504C67.0051 73.646 67.2753 72.793 68.1538 72.2309C70.7553 70.5677 73.4364 70.522 76.1886 71.8087C76.2824 71.8515 76.3763 71.8943 76.4616 71.9542C77.3515 72.559 78.2755 73.1781 78.1845 74.4249C78.0935 75.6659 77.1439 76.2336 76.1204 76.5931C75.1821 76.9212 74.1955 77.0981 73.2289 77.3434Z" fill="#F4A0A2"/>
</g>
<defs>
<clipPath id="clip0_1132_6375">
<rect width="121" height="103" fill="white"/>
</clipPath>
</defs>
</svg>
