<svg width="333" height="245" viewBox="0 0 333 245" fill="none" xmlns="http://www.w3.org/2000/svg">
<g clip-path="url(#clip0_1132_6788)">
<path d="M145.388 243.604C137.982 242.725 130.555 241.986 123.172 240.918C116.97 240.021 110.806 238.819 104.658 237.598C98.3327 236.337 92.0457 234.872 85.7385 233.521C79.7721 232.241 74.0955 230.129 68.5114 227.713C64.3222 225.9 60.002 224.373 55.8813 222.409C49.85 219.535 44.1784 216.007 38.8327 211.979C25.0822 201.614 14.5467 188.735 8.29357 172.536C4.71108 163.254 2.95558 153.614 3.21492 143.654C3.34126 138.825 3.59412 133.987 4.12008 129.188C4.71422 123.791 6.17358 118.561 8.05362 113.463C9.67477 109.074 11.1561 104.618 13.1059 100.379C14.1025 98.2133 14.0963 96.7506 12.9378 94.616C9.12041 87.587 6.23417 80.1514 5.15774 72.1553C4.10892 64.3582 4.45044 56.7046 7.8685 49.4043C11.7715 41.058 18.4488 36.3055 27.2108 34.2436C34.0364 32.6403 40.8446 33.2741 47.6474 34.5376C53.1439 35.5593 58.4394 37.2035 63.6012 39.335C64.0474 39.5207 64.8147 39.4879 65.1906 39.2187C75.224 32.0057 86.4594 27.4001 98.2083 23.924C110.985 20.1408 124.074 18.0591 137.308 16.7718C156.574 14.8948 175.827 15.0435 195.065 17.1119C204.525 18.132 213.909 19.6546 223.183 21.8028C231.102 23.6392 238.91 25.8741 246.382 29.118C247.195 29.4724 247.501 29.0861 247.984 28.6348C251.396 25.4231 254.652 22.0008 258.309 19.0981C264.54 14.1498 271.591 10.8067 279.627 10.067C289.332 9.17272 297.271 12.5891 303.34 20.2564C307.505 25.5213 309.841 31.6224 311.14 38.1307C312.742 46.1532 312.88 54.2426 311.844 62.354C311.814 62.5783 311.831 62.832 311.734 63.025C310.568 65.3418 311.689 67.0445 312.969 68.9478C319.379 78.4958 323.467 89.1084 326.803 100.043C329.083 107.51 330.66 115.132 331.511 122.892C332.614 132.917 332.366 142.918 330.521 152.844C325.668 178.934 311.462 198.901 290.271 214.211C275.436 224.926 258.856 231.901 241.318 236.745C231.4 239.481 221.334 241.558 211.126 242.685C202.508 243.64 193.844 244.249 185.181 244.681C171.902 245.344 158.635 244.833 145.388 243.604ZM53.5458 51.3913C50.953 50.6875 48.417 49.8526 45.8181 49.3298C41.3513 48.4347 36.8385 48.0599 32.2565 48.5209C25.8018 49.1739 21.5999 53.2333 20.8156 59.6981C20.2763 64.1376 20.4937 68.5484 21.3347 72.9036C22.5186 79.0639 23.9119 85.1873 25.2644 91.3172C25.4004 91.9393 25.7622 92.5663 26.1817 93.0523C27.381 94.4443 27.892 95.9971 27.2452 97.7347C26.5979 99.4773 25.8566 101.201 25.016 102.856C22.6331 107.556 20.754 112.472 19.9136 117.641C19.0741 122.8 18.7994 128.054 18.3867 133.277C18.1913 135.765 18.2004 138.272 18.2254 140.77C18.2518 143.535 18.0974 146.355 18.5618 149.058C19.2767 153.19 20.0724 157.375 21.4999 161.298C31.7828 189.507 51.2555 207.821 80.3683 215.474C87.9707 217.474 95.6316 219.267 103.323 220.892C110.792 222.467 118.299 223.954 125.853 225.022C134.495 226.247 143.202 227.069 151.895 227.89C163.639 229.002 175.423 229.053 187.196 228.594C196.733 228.224 206.23 227.292 215.667 225.779C228.314 223.753 240.689 220.696 252.654 216.089C267.623 210.322 281.341 202.503 292.823 191.093C304.751 179.238 312.295 165.048 315.042 148.416C316.529 139.412 316.452 130.35 315.131 121.318C313.712 111.628 310.91 102.324 307.405 93.1904C304.234 84.938 299.643 77.2807 297.78 68.4535C296.994 64.7334 296.573 61.0811 296.72 57.3782C296.945 51.7764 296.473 46.2641 295.297 40.8103C294.423 36.7749 293.061 32.913 290.318 29.7002C288.701 27.8072 286.748 26.4644 284.225 26.1551C279.499 25.5748 275.267 26.9189 271.622 29.8579C268.145 32.6556 264.891 35.72 261.5 38.6311C260.684 39.3302 260.249 40.0933 260.163 41.1848C260.089 42.0707 259.861 43.0033 259.459 43.7896C257.81 47.0215 253.879 48.3066 250.119 46.9801C245.472 45.3379 240.833 43.6662 236.146 42.1314C227.975 39.4608 219.657 37.3622 211.203 35.7808C199.008 33.4999 186.726 32.164 174.336 31.6959C173.368 31.6606 173.041 32.0047 172.943 32.8884C172.695 35.1101 172.433 37.3306 172.116 39.5461C171.985 40.4622 172.334 40.715 173.195 40.8165C176.854 41.2417 180.537 41.5581 184.141 42.2608C187.651 42.945 191.12 43.9131 194.523 45.0113C197.232 45.8867 199.178 47.7584 199.515 50.763C199.937 54.5717 196.915 57.6265 192.903 57.2759C190.293 57.0496 187.734 56.2984 185.135 55.8966C180.734 55.2191 176.321 54.6312 171.911 53.9983C171.156 53.891 170.837 54.2056 170.785 54.9573C170.673 56.5053 170.511 58.0489 170.374 59.5947C170.167 61.8755 170.162 61.9355 172.458 62.2349C177.693 62.9158 182.888 63.825 187.891 65.534C190.019 66.2622 192.237 67.0033 194.084 68.2359C197.688 70.6377 197.416 75.7463 193.764 77.9637C191.425 79.3899 189.006 78.6562 186.602 78.2011C181.118 77.1603 175.632 76.1295 170.148 75.0836C169.426 74.944 169.03 75.156 168.955 75.946C168.327 82.5759 167.664 89.2027 167.046 95.8336C166.847 97.9688 166.837 100.121 166.583 102.246C166.319 104.436 164.65 106.184 162.742 106.549C159.411 107.187 156.765 104.88 156.478 101.245C155.955 94.6134 156.422 88.0348 157.217 81.4549C157.513 79.0207 157.665 76.5737 157.901 73.9023C156.511 73.9303 155.213 74.0472 153.922 73.9731C148.533 73.6668 143.244 74.6752 137.924 75.2322C135.534 75.4791 133.179 76.0669 130.788 76.3088C128.673 76.5196 127.058 75.4487 126.409 73.7475C125.785 72.104 126.314 70.3358 127.888 68.9729C128.33 68.5885 128.825 68.224 129.359 67.9889C131.516 67.0256 133.661 66.0258 135.872 65.1983C140.427 63.5047 145.011 61.8942 149.92 61.5428C152.41 61.3652 154.896 61.1722 157.375 60.8978C158.009 60.828 159.09 60.4902 159.146 60.1473C159.495 57.9648 159.616 55.747 159.823 53.4208C159.244 53.425 158.712 53.4081 158.181 53.4417C156.689 53.5363 155.192 53.6355 153.702 53.7706C149.909 54.1151 146.108 54.3983 142.329 54.8751C139.272 55.2596 136.251 55.9295 133.202 56.4054C128.975 57.0593 125.827 53.7602 127.047 49.981C127.698 47.9715 129.271 46.8504 131.138 46.2647C134.77 45.1245 138.399 43.8378 142.128 43.1802C148.372 42.0748 154.691 41.4199 160.974 40.5449C161.32 40.495 161.859 40.2604 161.921 40.0138C162.624 37.303 163.249 34.5702 163.902 31.7996C163.573 31.7099 163.404 31.6294 163.234 31.6193C162.508 31.5802 161.778 31.5306 161.053 31.547C150.865 31.7582 140.715 32.4013 130.605 33.7336C116.602 35.5779 102.859 38.5697 89.4967 43.1733C80.0454 46.4296 71.0049 50.5541 62.988 56.6904C61.995 57.4545 60.8321 58.0926 59.6501 58.492C56.245 59.6321 53.1056 57.095 53.3615 53.5279C53.4109 52.8566 53.4803 52.1871 53.5495 51.4067L53.5458 51.3913Z" fill="black"/>
<path d="M53.5458 51.3917C53.4762 52.1771 53.4068 52.8466 53.3578 53.5128C53.1015 57.085 56.2413 59.6171 59.6464 58.4769C60.8279 58.0825 61.9913 57.4394 62.9843 56.6754C71.0012 50.5391 80.0417 46.4145 89.493 43.1583C102.856 38.5497 116.598 35.5629 130.601 33.7185C140.712 32.3863 150.862 31.7432 161.049 31.532C161.774 31.5156 162.504 31.5652 163.23 31.6043C163.4 31.6143 163.569 31.6949 163.898 31.7845C163.24 34.5497 162.616 37.2826 161.918 39.9988C161.856 40.2453 161.316 40.4849 160.97 40.5299C154.688 41.3998 148.363 42.0593 142.125 43.1651C138.395 43.8278 134.766 45.1094 131.135 46.2497C129.267 46.8354 127.695 47.9565 127.044 49.9659C125.824 53.7451 128.966 57.0438 133.198 56.3904C136.247 55.9195 139.268 55.2495 142.325 54.86C146.104 54.3832 149.905 54.1051 153.698 53.7556C155.188 53.6205 156.68 53.5259 158.178 53.4267C158.709 53.3931 159.24 53.4099 159.819 53.4058C159.612 55.737 159.491 57.9548 159.142 60.1322C159.086 60.4802 158.011 60.8134 157.371 60.8828C154.892 61.1572 152.401 61.3498 149.916 61.5278C145.007 61.8792 140.419 63.4842 135.868 65.1833C133.658 66.0058 131.513 67.0055 129.355 67.9739C128.826 68.2094 128.331 68.5739 127.885 68.9578C126.311 70.3208 125.782 72.089 126.405 73.7325C127.054 75.4337 128.669 76.5046 130.785 76.2938C133.174 76.0569 135.53 75.4691 137.921 75.2172C143.24 74.6652 148.525 73.6513 153.919 73.958C155.209 74.0321 156.507 73.9202 157.898 73.8872C157.661 76.5586 157.509 79.0107 157.213 81.4399C156.414 88.0193 155.946 94.5979 156.475 101.23C156.761 104.865 159.408 107.172 162.738 106.534C164.651 106.169 166.315 104.421 166.579 102.231C166.838 100.106 166.843 97.9538 167.042 95.8185C167.66 89.1877 168.318 82.5604 168.951 75.9309C169.026 75.1409 169.427 74.9344 170.144 75.0686C175.629 76.1094 181.114 77.1452 186.599 78.1861C189.007 78.6416 191.422 79.3749 193.761 77.9487C197.408 75.7258 197.679 70.6222 194.08 68.2208C192.233 66.9882 190.016 66.2471 187.888 65.519C182.879 63.8095 177.69 62.9007 172.455 62.2199C170.153 61.92 170.163 61.8604 170.37 59.5797C170.507 58.0339 170.674 56.4907 170.781 54.9423C170.833 54.1905 171.153 53.876 171.907 53.9833C176.317 54.6162 180.731 55.204 185.131 55.8815C187.731 56.2834 190.289 57.0345 192.899 57.2609C196.907 57.606 199.933 54.5567 199.511 50.748C199.179 47.7438 197.228 45.8717 194.519 44.9963C191.117 43.898 187.642 42.9295 184.137 42.2457C180.528 41.5426 176.845 41.2262 173.192 40.8015C172.331 40.7 171.981 40.4471 172.112 39.5311C172.429 37.3205 172.692 35.0951 172.939 32.8734C173.037 31.9947 173.365 31.6456 174.332 31.6809C186.722 32.149 199.01 33.4853 211.199 35.7658C219.658 37.3476 227.971 39.4458 236.142 42.1164C240.83 43.6461 245.468 45.3229 250.115 46.965C253.875 48.2916 257.806 47.0064 259.455 43.7745C259.857 42.9883 260.09 42.0561 260.159 41.1697C260.246 40.0783 260.68 39.3152 261.497 38.6161C264.883 35.7045 268.141 32.6405 271.618 29.8429C275.263 26.9089 279.501 25.5602 284.222 26.1401C286.744 26.4494 288.697 27.7922 290.314 29.6851C293.057 32.898 294.424 36.7603 295.294 40.7953C296.475 46.2445 296.947 51.7568 296.717 57.3632C296.565 61.0656 296.99 64.7184 297.777 68.4385C299.644 77.2661 304.236 84.9234 307.402 93.1753C310.912 102.31 313.708 111.613 315.127 121.303C316.449 130.335 316.525 139.397 315.038 148.401C312.292 165.033 304.748 179.223 292.819 191.078C281.337 202.488 267.62 210.307 252.65 216.074C240.685 220.681 228.31 223.738 215.664 225.764C206.226 227.277 196.729 228.209 187.192 228.579C175.414 229.032 163.636 228.982 151.891 227.875C143.199 227.054 134.491 226.232 125.849 225.007C118.296 223.934 110.788 222.452 103.319 220.877C95.6279 219.252 87.967 217.459 80.3646 215.459C51.2518 207.806 31.7791 189.492 21.4962 161.283C20.0683 157.365 19.268 153.175 18.5581 149.043C18.0887 146.339 18.2477 143.525 18.2217 140.755C18.1967 138.257 18.1926 135.751 18.383 133.262C18.7907 128.039 19.0654 122.784 19.9099 117.626C20.7553 112.457 22.6294 107.541 25.0123 102.841C25.8534 101.181 26.5942 99.4623 27.2415 97.7197C27.8883 95.9821 27.3773 94.4292 26.1781 93.0372C25.7585 92.5513 25.3971 91.9193 25.2607 91.3022C23.9082 85.1723 22.5194 79.0543 21.331 72.8886C20.4946 68.5388 20.2726 64.1226 20.8119 59.6831C21.5962 53.2183 25.8031 49.1593 32.2528 48.5059C36.8352 48.0398 41.3427 48.4192 45.8144 49.3148C48.4137 49.8326 50.9493 50.6725 53.5421 51.3763L53.5458 51.3917ZM169.401 143.134C170.125 142.225 170.714 141.592 171.194 140.883C173.618 137.307 176.811 134.257 177.651 129.653C178.497 125.044 177.106 121.391 172.846 119.36C169.246 117.644 165.34 117.237 161.418 117.227C158.789 117.221 156.156 117.421 153.53 117.602C150.848 117.783 148.559 118.82 147.135 121.205C145.795 123.451 145.254 125.919 145.533 128.555C146.002 133.023 147.711 137.012 150.282 140.628C151.015 141.661 150.886 142.26 149.943 142.968C147.579 144.739 145.303 146.64 142.889 148.342C137.374 152.24 131.557 155.627 125.409 158.434C122.359 159.828 121.325 159.403 120.047 156.351C119.736 155.602 119.338 154.871 118.869 154.209C117.965 152.949 116.616 152.618 115.219 153.003C113.766 153.404 112.747 154.453 112.663 156.034C112.588 157.389 112.585 158.78 112.83 160.102C113.581 164.112 115.774 167.115 119.717 168.357C121.077 168.785 121.365 169.4 121.468 170.564C122.037 176.791 123.287 182.886 125.396 188.771C128.509 197.446 132.977 205.244 140.465 210.919C146.327 215.362 152.917 217.605 160.338 216.891C167.201 216.229 173.167 213.365 178.538 209.167C185.464 203.761 190.678 196.917 194.992 189.323C199.15 182.008 202.305 174.271 204.019 166.053C204.612 163.222 205.654 161.741 208.348 160.79C211.936 159.52 214.667 157.08 216.007 153.306C217.026 150.437 216.594 147.419 214.703 145.668C213.638 144.681 212.381 144.227 210.939 144.785C209.579 145.315 208.742 146.309 208.801 147.802C208.872 149.714 207.75 150.633 206.268 151.47C201.54 154.141 196.692 153.686 191.882 151.954C186.244 149.927 180.679 147.689 175.093 145.515C173.241 144.796 171.428 143.98 169.411 143.13L169.401 143.134ZM86.6741 133.9C86.9288 130.63 84.592 127.605 81.2445 127.359C78.6812 127.172 76.0829 127.38 73.5068 127.565C69.5291 127.848 65.5491 128.155 61.5885 128.641C57.6375 129.133 53.722 129.961 49.7701 130.462C41.8463 131.464 34.2033 133.439 26.8913 136.673C25.9071 137.11 24.9054 137.631 24.1082 138.342C21.0355 141.065 22.0375 145.646 25.9196 146.953C28.0195 147.658 30.0588 147.118 32.0925 146.698C36.0828 145.877 40.0424 144.892 44.0492 144.169C47.6113 143.526 51.2215 143.135 54.8129 142.672C59.4826 142.073 64.1572 141.474 68.8361 140.941C72.8439 140.489 76.8675 140.201 80.873 139.719C84.0401 139.334 86.4405 136.819 86.6696 133.895L86.6741 133.9ZM271.187 133.583C271.183 133.456 271.185 133.326 271.181 133.199C264.104 133.328 257.026 133.407 249.953 133.611C247.648 133.679 245.33 133.963 243.054 134.341C240.63 134.741 239.125 136.458 238.861 138.749C238.615 140.905 239.727 142.991 241.847 143.753C243.188 144.235 244.68 144.423 246.111 144.499C249.104 144.659 252.115 144.568 255.106 144.742C266.869 145.422 278.571 146.615 290.142 148.942C292.544 149.427 294.969 149.869 297.406 150.115C300.91 150.471 303.875 148.561 304.42 145.816C305.096 142.442 303.325 139.618 299.702 138.455C297.457 137.737 295.202 136.972 292.895 136.556C285.704 135.248 278.545 133.635 271.177 133.582L271.187 133.583ZM291.682 174.127C293.259 173.858 294.913 173.758 296.453 173.289C300.149 172.155 300.843 168.581 298.13 165.83C295.962 163.626 293.349 162.517 290.423 161.778C285.986 160.659 281.664 158.985 277.178 158.184C269.668 156.848 262.088 155.848 254.504 155.055C250.503 154.635 246.427 154.838 242.391 154.979C240.852 155.035 239.255 155.523 237.832 156.143C236.294 156.814 235.574 158.58 235.808 160.139C236.051 161.769 237.316 163.096 239.036 163.435C239.837 163.592 240.666 163.604 241.469 163.736C246.714 164.584 251.969 165.388 257.201 166.331C261.665 167.135 266.114 168.064 270.55 169.022C273.92 169.749 277.266 170.59 280.618 171.401C284.276 172.285 287.927 173.199 291.687 174.127L291.682 174.127ZM89.516 156.246C89.7967 152.852 86.7164 149.932 83.092 150.256C80.4711 150.493 77.8516 150.77 75.2587 151.201C68.2713 152.361 61.2693 153.686 54.7578 156.513C48.2204 159.346 41.9155 162.735 35.5331 165.921C34.3175 166.529 33.1275 167.245 32.0671 168.089C30.3202 169.472 29.8455 171.593 30.7053 173.353C31.5478 175.082 33.3794 175.864 35.5708 175.423C36.016 175.337 36.4621 175.24 36.8876 175.091C40.6198 173.778 44.3761 172.533 48.0668 171.121C55.1985 168.39 62.3658 165.824 69.9016 164.435C74.6713 163.557 79.4306 162.627 84.1866 161.678C87.3201 161.048 89.292 158.999 89.5201 156.256L89.516 156.246ZM199.926 112.554C200.698 112.239 202.331 111.864 203.64 110.997C211.484 105.783 219.284 100.505 227.027 95.141C229.336 93.5407 231.528 91.7284 233.551 89.785C235.376 88.0309 235.579 85.4623 234.462 83.4827C233.371 81.5507 231.147 80.5468 228.705 81.1421C227.451 81.4494 226.167 81.981 225.11 82.7193C215.642 89.347 206.213 96.0338 196.812 102.753C196.066 103.287 195.468 104.132 195.013 104.948C193.254 108.12 195.469 112.179 199.926 112.559L199.926 112.554ZM38.1514 74.4351C38.4079 72.562 38.6383 70.9842 38.8338 69.4032C38.9253 68.655 39.2925 68.3699 40.0347 68.5063C41.5088 68.7832 43.0333 68.8881 44.4411 69.3457C46.245 69.9291 47.9525 70.8065 49.7082 71.5369C51.6578 72.3501 54.1065 71.957 55.4229 70.5511C56.9444 68.9314 57.4479 66.9391 56.3298 65.0299C55.5179 63.6369 54.2888 62.2977 52.9306 61.4513C47.9846 58.3608 42.4077 57.5085 36.7054 57.6735C33.5844 57.7649 31.1596 59.476 29.8389 62.3488C29.1281 63.8992 28.6853 65.6045 28.3404 67.2831C27.1588 73.0673 27.9763 78.8221 28.8313 84.5499C29.0668 86.1489 29.5371 87.7637 30.2118 89.2302C30.8905 90.7071 32.2246 91.5413 33.971 91.4693C35.6517 91.4014 36.9575 90.5693 37.4679 89.0667C37.9791 87.554 38.1926 85.8839 38.2347 84.2742C38.3172 80.9035 38.1989 77.53 38.1614 74.436L38.1514 74.4351ZM107.179 133.817C111.187 134.218 114.703 132.901 117.433 130.249C120.97 126.821 122.172 121.321 120.296 117.177C118.096 112.323 112.705 108.699 107.897 109.498C105.396 109.917 102.871 111.16 100.724 112.578C96.6913 115.241 94.9788 121.114 96.636 125.622C98.5326 130.777 102.675 132.999 107.175 133.812L107.179 133.817ZM289.448 57.102C289.33 54.3537 289.349 51.7488 289.069 49.1778C288.678 45.5936 287.538 42.2859 285.016 39.5363C280.843 34.9816 272.26 35.5367 268.13 38.7251C265.036 41.1181 262.105 43.7271 259.151 46.3038C258.409 46.949 257.802 47.7926 257.274 48.6333C256.483 49.9042 256.628 51.6667 257.534 52.7452C258.548 53.9494 259.872 54.329 261.343 53.8543C262.197 53.5821 263.02 53.1458 263.773 52.6529C265.678 51.4101 267.466 49.9652 269.431 48.8386C270.984 47.9477 272.674 47.1496 274.402 46.7684C276.5 46.309 276.929 46.7958 277.262 48.9379C277.387 49.7406 277.39 50.5626 277.423 51.3773C277.528 53.8319 277.454 56.306 277.757 58.7328C278.088 61.4092 280.247 63.4358 282.657 63.7654C284.903 64.0704 287.363 62.6348 288.451 60.2404C288.913 59.2176 289.139 58.0881 289.437 57.1111L289.448 57.102ZM228.856 121.199C229.398 115.302 227.083 111.754 221.837 110.119C218.979 109.231 216.157 108.386 213.067 109.544C206.106 112.164 202.793 120.829 206.727 126.719C208.991 130.111 212.567 131.296 216.343 132.094C219.557 132.777 222.292 131.931 224.612 129.696C227.136 127.263 228.448 124.208 228.856 121.194L228.856 121.199ZM129.148 106.789C129.302 105.164 128.2 103.755 126.808 102.487C118.22 94.6519 108.922 87.7219 99.471 80.9901C98.5104 80.31 97.5077 79.6514 96.4328 79.183C94.7769 78.4614 93.1821 78.8091 91.8993 80.0618C90.6491 81.2871 90.2395 82.844 91.0437 84.438C91.5609 85.467 92.2755 86.4833 93.1387 87.2404C101.431 94.5603 109.904 101.659 118.96 108.028C120.295 108.968 121.659 109.916 123.127 110.606C125.816 111.868 128.751 110.126 129.148 106.789Z" fill="#F08125"/>
<path d="M169.401 143.134C171.422 143.984 173.236 144.8 175.083 145.518C180.669 147.693 186.233 149.93 191.872 151.958C196.682 153.685 201.53 154.145 206.257 151.474C207.74 150.637 208.863 149.713 208.79 147.806C208.731 146.313 209.574 145.319 210.928 144.789C212.371 144.226 213.628 144.68 214.692 145.672C216.584 147.423 217.015 150.446 215.996 153.31C214.656 157.083 211.926 159.519 208.338 160.794C205.648 161.75 204.602 163.226 204.009 166.057C202.295 174.275 199.139 182.017 194.981 189.327C190.667 196.921 185.454 203.765 178.528 209.171C173.152 213.368 167.19 216.233 160.327 216.895C152.907 217.609 146.322 215.366 140.455 210.923C132.967 205.248 128.498 197.45 125.385 188.774C123.277 182.89 122.027 176.795 121.457 170.568C121.349 169.403 121.062 168.788 119.707 168.36C115.764 167.113 113.571 164.116 112.82 160.106C112.57 158.783 112.578 157.387 112.652 156.038C112.737 154.457 113.755 153.408 115.209 153.007C116.601 152.622 117.955 152.953 118.859 154.213C119.329 154.87 119.726 155.606 120.037 156.355C121.315 159.407 122.349 159.832 125.399 158.438C131.547 155.63 137.364 152.244 142.879 148.346C145.293 146.644 147.563 144.743 149.933 142.971C150.876 142.263 151.009 141.665 150.271 140.632C147.705 137.016 145.997 133.028 145.523 128.559C145.244 125.922 145.784 123.454 147.125 121.209C148.549 118.819 150.838 117.786 153.519 117.606C156.145 117.43 158.778 117.225 161.408 117.231C165.334 117.241 169.236 117.648 172.835 119.363C177.096 121.395 178.487 125.042 177.641 129.656C176.8 134.261 173.608 137.311 171.184 140.887C170.704 141.596 170.119 142.235 169.39 143.138L169.401 143.134ZM165.147 173.699C165.551 174.365 165.966 174.962 166.285 175.61C166.605 176.259 166.907 176.936 167.066 177.636C167.557 179.762 166.628 181.726 164.891 182.43C163.212 183.108 161.16 182.482 160.186 180.712C157.426 175.707 148.86 171.807 142.32 173.536C141.821 173.669 141.296 174.091 141.005 174.529C139.572 176.686 138.466 179.119 136.768 181.036C134.634 183.438 134.643 185.652 135.995 188.328C137.699 191.691 138.708 195.512 140.876 198.512C146.963 206.937 159.715 211.829 171.456 203.457C177.683 199.017 181.783 192.927 185.188 186.235C185.857 184.918 186.534 183.758 184.987 182.603C184.723 182.403 184.593 181.993 184.451 181.663C183.154 178.709 181.894 175.739 180.549 172.806C180.351 172.375 179.796 171.892 179.358 171.833C177.603 171.607 175.825 171.47 174.054 171.423C170.898 171.345 167.968 172.225 165.148 173.689L165.147 173.699ZM145.31 164.605C145.388 164.627 145.563 164.698 145.733 164.708C149.616 164.871 153.411 165.409 156.906 167.277C157.146 167.404 157.622 167.315 157.878 167.151C161.172 164.993 164.881 163.995 168.7 163.522C171.827 163.134 174.997 163.112 178.172 162.925C178.116 161.397 177.994 159.763 178.023 158.132C178.037 157.301 177.778 156.93 177.008 156.65C171.627 154.721 166.593 152.167 162.18 148.459C160.832 147.326 159.38 147.479 157.985 148.576C154.45 151.353 150.879 154.087 147.335 156.853C147.032 157.089 146.671 157.42 146.6 157.761C146.134 160.019 145.741 162.289 145.31 164.6L145.31 164.605ZM184.865 159.747C186.223 164.793 187.56 169.57 190.345 174.289C191.517 170.088 192.578 166.284 193.633 162.5C190.604 161.551 187.894 160.696 184.865 159.747ZM131.579 173.078C131.726 173.122 131.868 173.164 132.015 173.208C133.686 170.074 135.362 166.94 137.033 163.806C136.901 163.698 136.765 163.59 136.634 163.483C134.8 164.425 132.958 165.35 131.146 166.334C130.95 166.443 130.811 166.884 130.842 167.149C131.059 169.13 131.332 171.1 131.584 173.079L131.579 173.078Z" fill="black"/>
<path d="M86.6738 133.905C86.4452 136.824 84.0443 139.344 80.8772 139.728C76.8762 140.216 72.8481 140.499 68.8403 140.95C64.1619 141.479 59.4872 142.078 54.8171 142.682C51.2257 143.145 47.6155 143.536 44.0534 144.178C40.047 144.897 36.087 145.887 32.0967 146.708C30.0631 147.128 28.0237 147.668 25.9238 146.963C22.0417 145.656 21.0402 141.069 24.1124 138.352C24.9091 137.646 25.9113 137.12 26.8955 136.683C34.2025 133.448 41.8505 131.474 49.7743 130.472C53.7262 129.97 57.6367 129.142 61.5927 128.651C65.5487 128.16 69.5283 127.857 73.511 127.575C76.0817 127.394 78.6854 127.181 81.2487 127.368C84.5912 127.614 86.933 130.64 86.6783 133.91L86.6738 133.905Z" fill="black"/>
<path d="M271.192 133.588C278.56 133.641 285.714 135.253 292.91 136.562C295.216 136.983 297.472 137.742 299.716 138.461C303.34 139.619 305.106 142.448 304.435 145.822C303.885 148.566 300.92 150.471 297.42 150.121C294.983 149.875 292.558 149.433 290.157 148.948C278.591 146.617 266.884 145.427 255.121 144.748C252.129 144.573 249.119 144.664 246.126 144.505C244.689 144.428 243.202 144.241 241.862 143.759C239.742 142.996 238.629 140.911 238.876 138.755C239.14 136.459 240.644 134.747 243.068 134.347C245.345 133.969 247.663 133.685 249.967 133.617C257.041 133.412 264.119 133.334 271.196 133.205C271.2 133.331 271.198 133.462 271.202 133.589L271.192 133.588Z" fill="black"/>
<path d="M291.686 174.132C287.926 173.204 284.275 172.295 280.618 171.406C277.265 170.595 273.92 169.749 270.55 169.026C266.114 168.068 261.665 167.14 257.2 166.335C251.973 165.393 246.714 164.589 241.468 163.741C240.66 163.609 239.832 163.596 239.036 163.439C237.316 163.1 236.051 161.773 235.808 160.143C235.574 158.585 236.294 156.818 237.832 156.148C239.26 155.528 240.852 155.039 242.391 154.984C246.426 154.843 250.508 154.64 254.503 155.059C262.092 155.858 269.672 156.858 277.178 158.189C281.664 158.985 285.986 160.659 290.422 161.783C293.349 162.521 295.956 163.63 298.129 165.834C300.843 168.586 300.149 172.159 296.452 173.294C294.912 173.767 293.263 173.868 291.681 174.131L291.686 174.132Z" fill="black"/>
<path d="M89.5205 156.251C89.2925 158.994 87.3256 161.043 84.1871 161.672C79.4311 162.622 74.6718 163.551 69.902 164.429C62.3663 165.819 55.1985 168.39 48.0673 171.116C44.3766 172.528 40.6198 173.778 36.8881 175.086C36.4625 175.235 36.0115 175.331 35.5713 175.418C33.3798 175.859 31.5487 175.071 30.7058 173.348C29.846 171.588 30.3256 169.467 32.0675 168.084C33.128 167.24 34.318 166.524 35.5336 165.916C41.9164 162.725 48.2209 159.341 54.7582 156.507C61.2697 153.681 68.2718 152.356 75.2592 151.195C77.8521 150.765 80.4765 150.488 83.0924 150.251C86.7168 149.927 89.7972 152.847 89.5165 156.241L89.5205 156.251Z" fill="black"/>
<path d="M199.926 112.558C195.469 112.178 193.254 108.119 195.013 104.948C195.468 104.131 196.066 103.286 196.812 102.753C206.213 96.0331 215.647 89.3468 225.11 82.7186C226.166 81.9803 227.451 81.4488 228.705 81.1415C231.147 80.5462 233.371 81.55 234.462 83.482C235.579 85.4617 235.376 88.0302 233.551 89.7844C231.528 91.7327 229.335 93.5451 227.027 95.1404C219.284 100.504 211.484 105.788 203.64 110.996C202.331 111.863 200.698 112.243 199.926 112.553L199.926 112.558Z" fill="black"/>
<path d="M38.1509 74.4393C38.1835 77.5329 38.3068 80.9068 38.2243 84.2776C38.1871 85.8877 37.9687 87.5574 37.4575 89.0701C36.9521 90.5731 35.6408 91.4098 33.9606 91.4726C32.2147 91.5397 30.8851 90.7109 30.2014 89.2335C29.5263 87.772 29.0613 86.1527 28.8209 84.5533C27.9708 78.8259 27.1483 73.0707 28.3299 67.2865C28.6749 65.6078 29.1132 63.8971 29.8284 62.3522C31.1547 59.4748 33.5744 57.7633 36.695 57.6769C42.3973 57.5118 47.9792 58.3646 52.9202 61.4547C54.283 62.3066 55.5075 63.6403 56.3194 65.0332C57.4375 66.9424 56.9345 68.9297 55.4125 70.5545C54.096 71.9604 51.6473 72.3534 49.6978 71.5403C47.9425 70.8049 46.2346 69.9325 44.4307 69.349C43.0179 68.891 41.4934 68.7861 40.0243 68.5097C39.2871 68.3738 38.9203 68.6538 38.8234 69.4066C38.6279 70.9875 38.3975 72.5654 38.141 74.4384L38.1509 74.4393Z" fill="black"/>
<path d="M107.179 133.822C102.674 133.014 98.5362 130.792 96.6401 125.633C94.9829 121.124 96.6904 115.251 100.728 112.589C102.881 111.171 105.4 109.927 107.901 109.508C112.704 108.709 118.101 112.329 120.3 117.187C122.176 121.332 120.975 126.827 117.437 130.259C114.703 132.906 111.191 134.228 107.183 133.828L107.179 133.822Z" fill="black"/>
<path d="M289.447 57.1063C289.145 58.0828 288.924 59.2128 288.461 60.2356C287.374 62.63 284.918 64.066 282.667 63.7606C280.257 63.431 278.098 61.4094 277.767 58.728C277.465 56.3012 277.538 53.8271 277.434 51.3725C277.4 50.5578 277.398 49.7357 277.273 48.9331C276.94 46.786 276.511 46.2992 274.413 46.7636C272.684 47.1448 270.989 47.9424 269.442 48.8338C267.476 49.9654 265.683 51.4048 263.783 52.6481C263.03 53.141 262.202 53.5768 261.353 53.8495C259.878 54.3237 258.559 53.9446 257.544 52.7404C256.639 51.6619 256.488 49.899 257.285 48.6284C257.812 47.7878 258.42 46.9442 259.161 46.299C262.11 43.7218 265.042 41.1128 268.14 38.7203C272.265 35.5314 280.853 34.9768 285.026 39.5315C287.548 42.286 288.688 45.5888 289.079 49.173C289.36 51.744 289.339 54.3539 289.458 57.0972L289.447 57.1063Z" fill="black"/>
<path d="M228.855 121.203C228.447 124.217 227.136 127.267 224.611 129.705C222.291 131.94 219.551 132.781 216.343 132.104C212.566 131.305 208.99 130.116 206.726 126.728C202.793 120.839 206.105 112.173 213.066 109.553C216.156 108.39 218.978 109.235 221.836 110.129C227.087 111.764 229.398 115.312 228.855 121.208L228.855 121.203Z" fill="black"/>
<path d="M129.147 106.793C128.751 110.131 125.821 111.873 123.126 110.611C121.659 109.921 120.294 108.973 118.96 108.033C109.909 101.664 101.431 94.5649 93.1384 87.2451C92.2802 86.4883 91.5657 85.4721 91.0434 84.4426C90.2397 82.8437 90.6493 81.2867 91.899 80.0664C93.1818 78.8138 94.777 78.4611 96.4325 79.1876C97.5024 79.6556 98.5101 80.3147 99.4707 80.9948C108.922 87.7266 118.219 94.6616 126.808 102.492C128.194 103.759 129.297 105.163 129.147 106.793Z" fill="black"/>
<path d="M165.152 173.699C167.972 172.235 170.902 171.355 174.058 171.433C175.829 171.48 177.607 171.617 179.362 171.843C179.805 171.903 180.355 172.385 180.554 172.816C181.898 175.749 183.158 178.719 184.455 181.673C184.602 182.003 184.727 182.413 184.991 182.612C186.533 183.768 185.862 184.923 185.192 186.245C181.787 192.937 177.687 199.027 171.46 203.466C159.714 211.839 146.967 206.947 140.88 198.522C138.712 195.522 137.698 191.701 135.999 188.338C134.648 185.662 134.643 183.448 136.772 181.046C138.47 179.134 139.576 176.701 141.009 174.539C141.3 174.101 141.83 173.679 142.325 173.546C148.87 171.817 157.43 175.717 160.19 180.722C161.165 182.487 163.211 183.117 164.895 182.44C166.637 181.737 167.561 179.772 167.07 177.646C166.911 176.946 166.609 176.269 166.289 175.62C165.975 174.972 165.555 174.375 165.151 173.709L165.152 173.699Z" fill="#E63312"/>
<path d="M145.315 164.606C145.741 162.294 146.134 160.019 146.605 157.767C146.675 157.425 147.037 157.094 147.339 156.859C150.883 154.093 154.45 151.358 157.99 148.582C159.385 147.485 160.836 147.331 162.184 148.464C166.598 152.173 171.632 154.727 177.012 156.656C177.788 156.931 178.046 157.307 178.028 158.138C177.999 159.769 178.12 161.403 178.176 162.93C175.001 163.118 171.831 163.139 168.704 163.528C164.885 164.001 161.176 164.998 157.882 167.157C157.631 167.321 157.151 167.409 156.91 167.282C153.415 165.414 149.621 164.876 145.738 164.714C145.562 164.708 145.393 164.633 145.314 164.611L145.315 164.606Z" fill="#A23116"/>
<path d="M184.871 159.742C187.9 160.691 190.61 161.546 193.639 162.495C192.584 166.279 191.523 170.082 190.351 174.284C187.566 169.565 186.229 164.788 184.871 159.742Z" fill="white"/>
<path d="M131.584 173.079C131.331 171.105 131.064 169.13 130.842 167.149C130.811 166.884 130.95 166.443 131.146 166.334C132.958 165.35 134.8 164.424 136.634 163.483C136.765 163.59 136.901 163.698 137.033 163.805C135.362 166.94 133.686 170.073 132.015 173.207C131.868 173.164 131.726 173.121 131.579 173.078L131.584 173.079Z" fill="white"/>
</g>
<defs>
<clipPath id="clip0_1132_6788">
<rect width="333" height="245" fill="white"/>
</clipPath>
</defs>
</svg>
