<svg width="151" height="104" viewBox="0 0 151 104" fill="none" xmlns="http://www.w3.org/2000/svg">
<g clip-path="url(#clip0_1132_6376)">
<path d="M121.617 97.3979C116.242 97.4405 110.95 96.7698 105.717 95.5818C103.831 95.1527 101.95 94.6979 100.08 94.2062C99.1472 93.9618 98.3534 94.0357 97.5283 94.6041C94.0854 96.9801 90.3154 98.7052 86.3605 100.044C81.3328 101.749 76.1686 102.826 70.8991 103.452C66.2129 104.009 61.521 104.122 56.8149 103.866C51.921 103.599 47.138 102.715 42.4433 101.3C41.0718 100.885 39.6179 100.734 38.1952 100.501C34.889 99.9614 31.5771 99.4527 28.2708 98.9127C25.7784 98.5063 23.2944 98.026 20.7962 97.6508C16.9693 97.0767 13.1367 96.5481 9.29838 96.0394C7.17579 95.758 5.04181 95.5648 2.91638 95.3033C2.35585 95.2351 1.79248 95.1129 1.26326 94.9281C0.369834 94.6212 -0.0256626 94.0556 -5.49352e-05 93.2797C0.0255528 92.4669 0.517789 91.9155 1.35715 91.5859C2.11685 91.2874 2.86516 90.935 3.57364 90.5286C4.97068 89.7271 5.75029 88.3573 6.61811 87.0755C8.46471 84.3414 9.44918 81.2293 10.4706 78.1457C11.8022 74.1241 13.0599 70.0628 13.5549 65.848C14.1069 61.1615 14.4057 56.4436 14.8553 51.7428C15.0174 50.0489 15.302 48.3664 15.5296 46.6782C16.1072 42.4379 16.5311 38.1463 17.877 34.0708C20.2186 26.9855 23.485 20.4004 29.3634 15.4893C30.8231 14.2701 32.4107 13.173 34.0354 12.1783C37.2278 10.223 40.4003 8.19088 44.0736 7.21889C45.4394 6.85795 46.862 6.713 48.2534 6.44016C48.6716 6.35774 49.124 6.25827 49.4655 6.02522C51.3576 4.72923 53.4233 3.80556 55.5686 3.03252C59.6516 1.56032 63.8712 0.659385 68.179 0.278547C72.2762 -0.0852382 76.4019 -0.176185 80.4764 0.488861C84.9577 1.21927 89.4504 1.98095 93.8578 3.05241C96.467 3.68619 98.9822 4.82586 101.441 5.94848C104.536 7.36384 107.675 8.77351 110.543 10.5811C116.575 14.3809 122.2 18.7066 126.32 24.6834C127.814 26.8519 129.549 28.8755 130.835 31.1577C132.579 34.2555 134.048 37.5126 135.547 40.7412C137.425 44.7854 138.552 49.0798 139.602 53.3997C140.302 56.2816 141.187 59.1208 141.872 62.0055C142.475 64.5378 142.911 67.1128 143.431 69.6649C144.399 74.3941 146.65 78.5066 149.543 82.3093C149.933 82.8209 150.272 83.3751 150.59 83.935C151.23 85.0604 151.085 86.0722 150.354 87.1778C148.047 90.6764 144.638 92.626 140.891 94.1153C134.699 96.5708 128.209 97.3098 121.614 97.3951L121.617 97.3979ZM103.287 90.0142C104.183 90.1989 104.926 90.3467 105.669 90.5059C110.275 91.5063 114.924 92.2196 119.639 92.2651C122.814 92.2964 126.004 92.2395 129.162 91.944C133.288 91.5574 137.166 90.1279 140.902 88.3857C142.128 87.8144 143.232 86.9703 144.359 86.2058C144.914 85.8278 144.908 85.4072 144.504 84.7762C143.002 82.4315 141.297 80.1465 140.245 77.6028C138.97 74.5249 138.202 71.2252 137.362 67.9824C136.782 65.74 136.529 63.4124 135.985 61.1558C135.311 58.3478 134.392 55.5967 133.752 52.7802C132.403 46.8601 129.868 41.4176 127.227 36.0063C125.97 33.4313 124.169 31.2344 122.567 28.8897C118.33 22.6855 112.58 18.2007 106.212 14.4406C103.996 13.1332 101.631 12.0504 99.2553 11.05C96.595 9.93023 93.9119 8.7394 91.1206 8.08004C86.5539 7.00005 81.9332 6.11048 77.2242 5.76659C68.7794 5.14986 60.6987 6.45437 52.9965 10.0468C51.5824 10.7061 50.0829 11.2774 48.5635 11.5957C44.4947 12.4483 40.6394 13.8324 37.1823 16.1203C30.456 20.5738 26.0743 26.886 23.2261 34.3209C21.7181 38.2572 21.1178 42.4151 20.7393 46.5788C20.3552 50.7936 20.2528 55.0311 19.9313 59.2516C19.7321 61.8748 19.4504 64.5009 19.035 67.0957C18.3094 71.6146 17.0461 76.0084 15.5979 80.3483C14.2777 84.3016 12.8095 88.181 10.3796 91.62C9.90443 92.2935 9.99548 92.4754 10.7979 92.6204C10.9515 92.6488 11.1051 92.6744 11.2588 92.6829C14.8695 92.8648 18.483 93.0438 22.0937 93.2144C22.3213 93.2257 22.5546 93.149 22.8818 93.1007C22.7168 92.8477 22.6514 92.7085 22.5518 92.5976C21.6726 91.6171 20.7137 90.702 19.9227 89.6561C17.7461 86.7771 16.5738 83.5485 16.9409 79.8964C17.3335 76.0141 19.1602 72.7912 21.7693 69.9804C22.2217 69.4916 22.3811 69.0397 22.2701 68.3888C21.7295 65.1915 21.9116 61.9942 22.5148 58.8366C23.3911 54.2495 24.9504 49.8841 27.0075 45.6892C30.9454 37.6603 36.1182 30.5779 43.0009 24.8113C45.4251 22.7821 48.0428 21.0228 51.0133 19.8718C51.5141 19.6785 52.2169 19.5165 52.6437 19.7212C53.6225 20.1958 54.5955 20.7926 55.3752 21.5429C56.9515 23.0663 58.357 24.763 59.9049 26.3148C63.0916 29.5121 66.7564 32.124 70.441 34.6989C70.8166 34.9604 71.3458 35.0968 71.8096 35.1195C74.285 35.2389 76.7661 35.2559 79.2387 35.4123C80.3113 35.4805 81.384 35.7306 82.4254 36.0148C83.3644 36.2706 83.9078 37.1914 83.7741 38.027C83.6432 38.8426 82.912 39.4224 81.8905 39.4139C81.1991 39.4082 80.5077 39.2775 79.8134 39.2064C79.4777 39.1723 79.1419 39.1524 78.8062 39.1269C78.7863 39.2007 78.7692 39.2746 78.7493 39.3457C78.9513 39.4793 79.1448 39.6299 79.3582 39.7407C83.114 41.6989 86.9011 43.5974 90.6227 45.6181C94.8707 47.9231 99.042 50.3559 102.698 53.5731C104.812 55.4318 106.67 57.4867 107.962 60.0076C108.483 61.025 108.471 61.025 109.231 60.2264C112.443 56.8443 116.245 54.8151 121.062 55.1959C123.315 55.375 125.264 56.2646 126.849 57.8618C129.6 60.63 130.554 64.1058 130.11 67.829C129.1 76.2955 124.837 82.6077 116.956 86.1774C114 87.516 110.884 87.6155 107.851 86.2314C107.29 85.9756 106.963 86.0921 106.576 86.5099C105.663 87.4933 104.707 88.4368 103.774 89.4003C103.64 89.5396 103.532 89.7016 103.284 90.0113L103.287 90.0142ZM37.1396 37.6945C37.1823 37.757 37.2278 37.8195 37.2705 37.882C37.5835 37.8309 37.8993 37.7911 38.2066 37.7257C39.2907 37.4955 40.3662 37.1147 41.4588 37.055C43.4903 36.947 45.5361 37.0038 47.5733 37.0408C47.9973 37.0493 48.4469 37.1942 48.8281 37.3875C49.6931 37.8252 50.0146 38.5101 49.8439 39.3542C49.6988 40.0647 49.0159 40.653 48.1282 40.6616C47.2803 40.6701 46.4295 40.5536 45.5845 40.4683C41.7832 40.0932 38.1839 40.8321 34.7154 42.364C34.1094 42.6311 33.5915 42.9068 33.2444 43.5235C30.2483 48.8752 27.8526 54.4485 26.8397 60.539C26.4527 62.8639 26.2507 65.2 26.5722 67.5561C26.6405 68.0506 26.7486 68.3746 27.3859 68.2723C30.9767 67.6954 33.7253 69.1619 35.5263 72.1347C37.336 75.1189 37.1965 78.1315 34.3199 80.6467C32.2514 82.4571 29.7305 83.2671 26.9961 83.4462C25.4483 83.5485 23.9602 83.3296 22.4949 82.838C22.2786 82.7641 22.014 82.8408 21.7693 82.8493C21.7779 83.0937 21.7323 83.358 21.8035 83.5826C22.2644 85.0235 22.9615 86.3337 23.9374 87.4989C26.5494 90.6167 29.9695 92.5607 33.6314 94.1323C38.053 96.028 42.705 97.1677 47.4538 97.7816C58.7212 99.2339 69.8862 98.6456 80.8918 95.6955C84.6931 94.6752 88.4005 93.3991 91.9401 91.6796C96.8738 89.2838 101.381 86.3508 104.553 81.704C105.58 80.2005 107 80.0897 108.42 81.2492C109.76 82.3434 111.265 82.7641 112.973 82.5594C115.092 82.3036 116.93 81.3942 118.578 80.0982C122.143 77.2902 124.405 73.6382 125.358 69.2159C125.751 67.3856 125.776 65.5184 125.199 63.6994C124.234 60.6612 121.901 59.2317 118.751 59.7347C117.081 60.0019 115.556 60.6129 114.301 61.764C112.529 63.3868 110.793 65.0466 109.043 66.6893C108.346 67.343 107.549 67.7181 106.576 67.4879C105.404 67.2094 104.818 66.4704 104.718 65.038C104.619 63.6341 104.152 62.3722 103.429 61.187C102.004 58.8452 99.9809 57.0689 97.8384 55.446C93.3314 52.0327 88.3095 49.4635 83.3359 46.826C78.9342 44.4927 74.4927 42.2276 70.128 39.8288C69.0895 39.2576 68.1619 39.1468 67.1205 39.502C65.365 40.1017 63.6151 40.7184 61.8738 41.3579C61.0971 41.6421 60.4 41.5142 59.9163 40.9088C59.4667 40.3461 59.4468 39.6214 59.9675 38.9847C60.289 38.5925 60.6873 38.2231 61.1283 37.9872C61.9905 37.5268 62.9067 37.1687 63.8001 36.7651C64.0903 36.6344 64.3748 36.4837 64.7732 36.2876C64.4573 36.029 64.2667 35.867 64.0675 35.7107C62.9493 34.8353 61.797 33.9998 60.7158 33.0818C57.8164 30.612 55.0167 28.0456 53.3379 24.5214C53.0932 24.007 52.729 23.9303 52.2652 24.2003C50.8597 25.016 49.3972 25.7492 48.0627 26.67C44.2216 29.3189 41.032 32.6554 38.1469 36.2961C37.7912 36.7452 37.4697 37.2255 37.1311 37.6916L37.1396 37.6945ZM26.3047 79.6321C28.3875 79.6378 30.163 79.1148 31.708 77.9183C32.8404 77.0401 33.105 75.9914 32.5815 74.7096C31.9953 73.2715 30.9824 72.1972 29.4459 72.0267C27.7046 71.8334 25.858 71.5094 24.6175 73.4563C23.7041 74.8887 22.5774 76.1818 22.0852 77.8501C21.9742 78.2224 21.8433 78.6004 22.3868 78.7994C23.6984 79.2768 25.0016 79.7856 26.3019 79.6349L26.3047 79.6321Z" fill="black"/>
<path d="M103.284 90.0142C103.532 89.7044 103.64 89.5424 103.774 89.4031C104.707 88.4397 105.663 87.4961 106.576 86.5127C106.963 86.0978 107.291 85.9813 107.851 86.2342C110.884 87.6183 114 87.5188 116.956 86.1802C124.837 82.6106 129.1 76.3012 130.11 67.8318C130.554 64.1087 129.601 60.6328 126.849 57.8646C125.261 56.2674 123.315 55.375 121.062 55.1988C116.245 54.8179 112.446 56.8472 109.231 60.2292C108.471 61.0279 108.483 61.0279 107.962 60.0104C106.67 57.4895 104.812 55.4347 102.698 53.5759C99.042 50.3615 94.8708 47.9259 90.6228 45.621C86.9011 43.6003 83.114 41.7018 79.3582 39.7436C79.1449 39.6327 78.9514 39.4793 78.7494 39.3485C78.7693 39.2746 78.7863 39.2007 78.8063 39.1297C79.142 39.1553 79.4778 39.1752 79.8135 39.2093C80.5049 39.2775 81.1963 39.4082 81.8906 39.4167C82.912 39.4253 83.6433 38.8455 83.7741 38.0298C83.9079 37.1971 83.3644 36.2762 82.4255 36.0176C81.3841 35.7334 80.3114 35.4805 79.2387 35.4151C76.7662 35.2588 74.2851 35.2417 71.8097 35.1224C71.343 35.0996 70.8138 34.9632 70.4411 34.7017C66.7536 32.1268 63.0917 29.5149 59.9049 26.3176C58.3571 24.7658 56.9515 23.0663 55.3752 21.5458C54.5956 20.7955 53.6225 20.1986 52.6437 19.724C52.2198 19.5194 51.5142 19.6785 51.0134 19.8746C48.0429 21.0285 45.4252 22.7849 43.001 24.8141C36.1182 30.5807 30.9455 37.6632 27.0076 45.692C24.9504 49.8869 23.3912 54.2523 22.5149 58.8395C21.9117 61.997 21.7296 65.1943 22.2702 68.3917C22.3811 69.0425 22.2218 69.4944 21.7694 69.9832C19.1603 72.7969 17.3336 76.017 16.9409 79.8992C16.571 83.5541 17.7433 86.7827 19.9228 89.6589C20.7138 90.7048 21.6727 91.6199 22.5519 92.6004C22.6514 92.7113 22.7169 92.8477 22.8819 93.1035C22.5547 93.1547 22.3214 93.2285 22.0938 93.2172C18.4802 93.0467 14.8696 92.8676 11.2589 92.6857C11.1052 92.6772 10.9516 92.6516 10.7979 92.6232C9.99271 92.4782 9.9045 92.2963 10.3797 91.6228C12.8096 88.1839 14.2777 84.3016 15.5979 80.3511C17.0462 76.0113 18.3095 71.6203 19.0351 67.0985C19.4533 64.5009 19.7322 61.8776 19.9313 59.2544C20.2529 55.0339 20.3581 50.7964 20.7394 46.5816C21.1178 42.418 21.7182 38.26 23.2262 34.3237C26.0772 26.8889 30.4561 20.5766 37.1824 16.1231C40.6394 13.8352 44.4948 12.4511 48.5636 11.5985C50.0858 11.2802 51.5824 10.7089 52.9966 10.0496C60.6959 6.4572 68.7766 5.14984 77.2243 5.76941C81.9332 6.11331 86.554 7.00287 91.1207 8.08286C93.9119 8.74222 96.5951 9.93305 99.2554 11.0528C101.631 12.0532 103.999 13.1361 106.212 14.4434C112.58 18.2035 118.33 22.6883 122.567 28.8925C124.166 31.2372 125.97 33.4342 127.228 36.0091C129.871 41.4204 132.406 46.8601 133.752 52.783C134.392 55.5995 135.311 58.3506 135.985 61.1586C136.529 63.4152 136.782 65.74 137.362 67.9853C138.202 71.2281 138.97 74.5277 140.245 77.6057C141.298 80.1493 143.002 82.4343 144.504 84.7791C144.908 85.41 144.914 85.8306 144.359 86.2086C143.232 86.976 142.128 87.8172 140.902 88.3885C137.166 90.1307 133.291 91.5574 129.162 91.9468C126.004 92.2423 122.814 92.2992 119.639 92.2679C114.924 92.2225 110.272 91.5091 105.669 90.5087C104.929 90.3467 104.183 90.2017 103.287 90.017L103.284 90.0142Z" fill="black"/>
<path d="M37.1368 37.6944C37.4754 37.2283 37.794 36.7509 38.1526 36.299C41.0377 32.6583 44.2301 29.3217 48.0684 26.6729C49.4029 25.752 50.8625 25.0188 52.2709 24.2031C52.7347 23.9331 53.0989 24.0098 53.3436 24.5243C55.0223 28.0484 57.8221 30.6148 60.7215 33.0846C61.8027 34.0054 62.955 34.8381 64.0732 35.7135C64.2724 35.8698 64.463 36.0318 64.7789 36.2904C64.3805 36.4865 64.096 36.6343 63.8058 36.7679C62.9123 37.1743 61.9962 37.5296 61.134 37.99C60.693 38.2259 60.2918 38.5982 59.9731 38.9876C59.4525 39.6242 59.4724 40.3489 59.9219 40.9117C60.4056 41.5142 61.1027 41.6449 61.8795 41.3607C63.6208 40.7241 65.3707 40.1045 67.1262 39.5048C68.1676 39.1496 69.0952 39.2604 70.1337 39.8317C74.5012 42.2304 78.9399 44.4955 83.3416 46.8289C88.318 49.4663 93.3371 52.0355 97.8441 55.4489C99.9866 57.0717 102.01 58.8508 103.435 61.1899C104.158 62.3778 104.624 63.6369 104.724 65.0409C104.824 66.4733 105.41 67.2122 106.582 67.4907C107.555 67.7209 108.352 67.3458 109.049 66.6921C110.802 65.0494 112.537 63.3896 114.307 61.7668C115.562 60.6186 117.087 60.0047 118.757 59.7376C121.907 59.2373 124.243 60.6641 125.204 63.7022C125.782 65.5212 125.756 67.3884 125.364 69.2187C124.411 73.6438 122.149 77.293 118.583 80.101C116.936 81.397 115.098 82.3065 112.978 82.5622C111.271 82.7669 109.766 82.3463 108.426 81.2521C107.003 80.0925 105.583 80.2033 104.559 81.7068C101.386 86.3536 96.8824 89.2838 91.9458 91.6825C88.4034 93.4019 84.6988 94.6808 80.8975 95.6983C69.889 98.6484 58.7269 99.2367 47.4595 97.7844C42.7107 97.1733 38.0587 96.0337 33.6371 94.1352C29.978 92.5663 26.558 90.6195 23.9431 87.5018C22.9644 86.3365 22.2701 85.0235 21.8092 83.5854C21.738 83.3609 21.7836 83.0966 21.775 82.8521C22.0169 82.8436 22.2843 82.7697 22.5006 82.8408C23.963 83.3325 25.454 83.5513 27.0018 83.449C29.7362 83.2671 32.2571 82.4571 34.3256 80.6495C37.1994 78.1343 37.3416 75.1217 35.532 72.1375C33.731 69.1647 30.9796 67.701 27.3916 68.2751C26.7543 68.3775 26.6462 68.0535 26.5779 67.5589C26.2564 65.2029 26.4584 62.8638 26.8453 60.5419C27.8583 54.4513 30.254 48.8751 33.2501 43.5264C33.5972 42.9096 34.1151 42.634 34.7211 42.3668C38.1895 40.8349 41.7917 40.096 45.5902 40.4711C46.4381 40.5536 47.286 40.6729 48.1339 40.6644C49.0216 40.6559 49.7045 40.0676 49.8496 39.357C50.0203 38.5129 49.6988 37.8252 48.8338 37.3903C48.4525 37.1971 48.0001 37.0521 47.579 37.0436C45.5418 37.0095 43.4989 36.9498 41.4645 37.0578C40.3719 37.1175 39.2964 37.4983 38.2123 37.7285C37.9022 37.7939 37.5892 37.8337 37.2762 37.8848C37.2335 37.8223 37.188 37.7598 37.1453 37.6973L37.1368 37.6944ZM79.7394 68.1131C81.3186 68.1472 82.1665 67.4481 82.4368 66.0242C82.653 64.8874 82.7242 63.7221 82.9034 62.5768C83.0286 61.7725 83.2619 60.9824 83.37 60.1781C83.4184 59.8285 83.3956 59.3482 83.1908 59.1151C82.8493 58.7286 82.377 58.3648 81.8905 58.2199C80.2089 57.7225 78.4989 57.3303 76.8031 56.887C76.5157 56.8131 76.2483 56.6738 75.9694 56.563C76.143 56.2986 76.2568 55.9519 76.4986 55.7785C77.927 54.7639 79.3639 53.755 80.8434 52.8143C81.3954 52.4647 81.5234 52.1322 81.2787 51.5495C80.5788 49.8926 79.6569 48.3806 78.4107 47.0761C75.8158 44.3619 72.4811 43.839 69.4224 45.6835C67.994 46.5446 66.9328 47.7809 66.1218 49.2105C63.8428 53.2292 63.0318 57.569 63.6607 62.1221C63.857 63.5488 63.7517 64.4554 62.2579 65.0579C61.1312 65.5126 60.7926 66.6637 61.2109 67.5561C61.5779 68.3377 62.4998 68.6361 63.6521 68.1245C66.0536 67.0587 68.6029 66.8342 71.1523 66.7859C73.4428 66.7433 75.7475 66.9053 77.9583 67.6641C78.6355 67.8971 79.3525 68.0165 79.7423 68.1131H79.7394ZM35.9105 65.1943C37.6063 65.4302 38.9492 65.5325 40.2552 65.8139C42.1957 66.2317 44.1021 66.7916 46.0312 67.2634C47.1665 67.5419 47.9603 67.1554 48.3928 66.0697C48.6574 65.4046 48.8082 64.6884 48.959 63.9865C49.1838 62.9292 49.2919 61.8407 49.585 60.8033C49.9719 59.4334 49.7898 58.8395 48.4725 58.2824C46.9986 57.66 45.4963 57.1086 44.0139 56.509C43.7692 56.4095 43.5586 56.2219 43.331 56.077C43.5046 55.8666 43.6411 55.5967 43.8602 55.4574C45.2317 54.5849 46.6002 53.7038 48.0172 52.908C48.6858 52.5329 48.8452 52.0554 48.5578 51.4472C47.9119 50.0773 47.3656 48.6165 46.4864 47.4058C44.3923 44.5239 41.2283 44.2056 38.4371 46.4366C36.8636 47.6928 35.8393 49.3611 35.0284 51.1659C33.6115 54.3206 32.9257 57.6344 32.9627 61.0904C32.9713 61.7412 32.7067 62.0141 32.0949 62.1249C31.4889 62.2329 30.8714 62.3693 30.3081 62.6109C29.261 63.0571 28.8513 63.8898 29.1557 64.7595C29.4317 65.5553 30.402 65.9247 31.4263 65.7627C33.0253 65.5126 34.6386 65.3506 35.9133 65.1943H35.9105ZM92.1563 84.9269C95.7585 84.907 98.8229 83.6366 100.826 81.3402C102.365 79.5752 103.199 77.5261 102.653 75.1359C101.899 71.8277 99.6423 69.9122 96.5381 68.9629C91.8803 67.539 87.6408 68.3803 84.2265 71.9329C81.3613 74.9114 81.5121 78.9329 84.3403 81.8688C86.5739 84.1879 89.4903 84.7535 92.1535 84.9269H92.1563ZM49.8467 84.2391C49.2037 84.1993 48.555 84.1822 47.9148 84.1083C47.3002 84.0373 46.6913 83.9094 46.0796 83.8014C45.041 83.6195 44.3553 82.9516 43.7293 82.1615C43.2172 81.5135 43.3225 80.8797 43.4391 80.1294C43.5131 79.6633 43.2115 79.0153 42.8701 78.6373C42.4546 78.1769 41.8258 78.049 41.16 78.3503C39.9166 78.9073 39.063 80.4989 39.4386 81.8063C40.0589 83.952 41.308 85.6743 43.2826 86.7458C45.7893 88.1071 48.572 88.0133 51.3007 87.9565C52.5498 87.9309 53.8444 87.7036 55.0252 87.2943C58.8919 85.9528 62.2152 83.7048 65.1175 80.84C65.5044 80.4563 65.7747 80.3994 66.23 80.7177C67.7181 81.7608 69.4167 82.3065 71.1922 82.5509C71.8921 82.6475 72.6404 82.5765 73.3375 82.4343C74.4159 82.2155 75.076 81.2492 74.9394 80.2857C74.7915 79.2512 74.0175 78.6913 72.7998 78.7453C72.6205 78.7539 72.4384 78.7794 72.2592 78.788C69.283 78.9414 67.1746 77.2419 66.745 74.3543C66.6881 73.9763 66.5856 73.5955 66.4462 73.2374C66.1702 72.5326 65.6837 72.0409 64.8756 72.092C64.0761 72.1432 63.4473 72.5979 63.3164 73.3738C63.1599 74.2975 63.0944 75.2695 63.2139 76.1903C63.3078 76.915 63.2481 77.4522 62.6876 77.9098C61.2735 79.0665 59.9134 80.3 58.431 81.3629C55.8816 83.1932 53.0648 84.3385 49.8467 84.2334V84.2391ZM116.176 69.7871C116.725 69.1761 117.112 68.7043 117.545 68.278C118.188 67.6442 118.916 67.09 119.52 66.4221C120.763 65.0409 120.308 63.202 118.618 62.716C117.539 62.4063 116.72 63.0116 115.96 63.6511C113.132 66.0271 110.992 68.9601 109.205 72.1603C108.693 73.0782 108.221 74.0389 107.888 75.0336C107.575 75.9686 108.053 76.9094 108.853 77.3527C109.675 77.8103 110.58 77.6511 111.317 76.8923C111.547 76.6536 111.741 76.3722 111.923 76.0937C112.23 75.6162 112.568 75.1473 112.79 74.63C113.118 73.8683 113.616 73.766 114.347 73.9877C115.903 74.4595 117.462 74.9199 119.039 75.315C120.026 75.5622 121.019 75.0506 121.457 74.198C121.89 73.3596 121.762 72.2995 120.956 71.6714C120.345 71.1939 119.579 70.887 118.845 70.6C118.063 70.2959 117.235 70.1054 116.179 69.79L116.176 69.7871ZM46.458 75.1444C46.4181 76.0226 46.7966 76.8582 47.542 77.5488C48.7285 78.643 50.1512 79.1546 51.7303 79.0011C52.4303 78.9329 53.1786 78.6032 53.7505 78.1798C54.4903 77.6341 54.5813 76.807 54.2228 76.0994C53.8415 75.3434 53.153 75.0308 52.214 75.1302C51.7303 75.1814 51.2267 75.2382 50.7572 75.1558C50.0772 75.0364 49.9292 74.5135 50.4386 74.0446C50.8312 73.6836 51.3377 73.4477 51.7588 73.1095C52.6437 72.4018 52.4786 71.2281 51.4173 70.8387C51.0019 70.6852 50.4983 70.6199 50.063 70.6909C47.9631 71.032 46.4608 72.8623 46.458 75.1416V75.1444Z" fill="white"/>
<path d="M26.3019 79.6321C25.0016 79.7827 23.6985 79.2768 22.3868 78.7965C21.8434 78.5975 21.9742 78.2224 22.0852 77.8472C22.5803 76.1789 23.707 74.8858 24.6175 73.4534C25.8581 71.5066 27.7047 71.8306 29.446 72.0238C30.9825 72.1944 31.9954 73.2658 32.5815 74.7067C33.105 75.9885 32.8404 77.0372 31.708 77.9154C30.1602 79.1148 28.3847 79.6349 26.3048 79.6292L26.3019 79.6321Z" fill="#F4A0A2"/>
<path d="M79.7395 68.1132C79.3526 68.0166 78.6355 67.8972 77.9555 67.6641C75.7447 66.9053 73.44 66.7433 71.1496 66.7859C68.6002 66.8343 66.0479 67.0588 63.6493 68.1246C62.4998 68.6361 61.5751 68.3377 61.2081 67.5561C60.7898 66.6637 61.1256 65.5099 62.2552 65.058C63.7489 64.4583 63.8542 63.5488 63.6579 62.1221C63.0291 57.5663 63.84 53.2293 66.1191 49.2106C66.93 47.781 67.9913 46.5447 69.4196 45.6836C72.4783 43.839 75.8158 44.362 78.4079 47.0762C79.6542 48.3778 80.5732 49.8927 81.276 51.5496C81.5235 52.1322 81.3926 52.4619 80.8406 52.8143C79.3611 53.755 77.9242 54.7611 76.4959 55.7786C76.2569 55.9491 76.1402 56.2959 75.9666 56.563C76.2455 56.671 76.5129 56.8103 76.8003 56.887C78.4961 57.3332 80.209 57.7254 81.8877 58.2199C82.3743 58.3649 82.8466 58.7287 83.188 59.1152C83.3929 59.3482 83.4156 59.8286 83.3673 60.1781C83.2591 60.9853 83.0258 61.7725 82.9006 62.5768C82.7242 63.7222 82.6503 64.8874 82.434 66.0243C82.1637 67.451 81.3158 68.1473 79.7367 68.1132H79.7395Z" fill="black"/>
<path d="M35.9105 65.1971C34.6386 65.3535 33.0254 65.5154 31.4235 65.7656C30.3991 65.9247 29.4317 65.5581 29.1529 64.7623C28.8485 63.8926 29.2582 63.0571 30.3053 62.6137C30.8686 62.375 31.486 62.2385 32.0921 62.1277C32.7038 62.0169 32.9684 61.744 32.9599 61.0932C32.9201 57.6372 33.6058 54.3205 35.0256 51.1687C35.8365 49.3639 36.8608 47.6956 38.4343 46.4395C41.2255 44.2113 44.3866 44.5296 46.4836 47.4086C47.3628 48.6193 47.9091 50.0802 48.555 51.45C48.8424 52.0582 48.683 52.5357 48.0144 52.9109C46.5974 53.7066 45.2288 54.5877 43.8574 55.4602C43.6383 55.5995 43.5046 55.8695 43.3282 56.0798C43.5558 56.2247 43.7664 56.4123 44.0111 56.5118C45.4935 57.1114 46.9986 57.6628 48.4696 58.2852C49.787 58.8423 49.9691 59.4363 49.5821 60.8061C49.2891 61.8435 49.1838 62.932 48.9562 63.9893C48.8054 64.6941 48.6546 65.4075 48.39 66.0725C47.9575 67.161 47.1636 67.5447 46.0284 67.2662C44.0993 66.7944 42.1901 66.2345 40.2524 65.8167C38.9464 65.5353 37.6034 65.4302 35.9076 65.1971H35.9105Z" fill="black"/>
<path d="M92.1535 84.9297C89.4903 84.7563 86.5739 84.1908 84.3403 81.8716C81.5121 78.9358 81.3613 74.9142 84.2265 71.9358C87.6437 68.3832 91.8804 67.5419 96.5381 68.9658C99.6423 69.915 101.896 71.8306 102.653 75.1388C103.199 77.5318 102.365 79.5809 100.826 81.343C98.8229 83.6394 95.7585 84.907 92.1564 84.9297H92.1535ZM93.2233 72.1233C90.7508 72.1233 88.8245 72.8083 87.3876 74.0503C85.4642 75.7185 85.5695 78.1798 87.5697 79.7543C89.7151 81.4425 92.1023 81.3373 94.5606 80.8314C95.8865 80.5586 97.0104 79.8907 97.9408 78.913C99.4375 77.3414 99.318 75.2269 97.6762 73.8002C96.2792 72.5866 94.5976 72.2001 93.2233 72.1205V72.1233Z" fill="black"/>
<path d="M49.8468 84.2419C53.0677 84.3471 55.8817 83.2017 58.4311 81.3714C59.9135 80.3085 61.2735 79.075 62.6876 77.9183C63.2481 77.4607 63.3079 76.9207 63.214 76.1988C63.0945 75.278 63.1599 74.3032 63.3164 73.3823C63.4473 72.6064 64.0761 72.1517 64.8757 72.1006C65.6837 72.0494 66.1703 72.5439 66.4463 73.2459C66.5857 73.604 66.6881 73.9848 66.745 74.3628C67.1747 77.2475 69.283 78.95 72.2592 78.7965C72.4385 78.788 72.6206 78.7595 72.7998 78.7539C74.0176 78.6999 74.7944 79.2597 74.9395 80.2943C75.076 81.2577 74.4159 82.2212 73.3376 82.4429C72.6405 82.585 71.8893 82.6532 71.1922 82.5594C69.4139 82.315 67.7181 81.7693 66.23 80.7263C65.7748 80.4079 65.5045 80.4648 65.1175 80.8485C62.2153 83.7133 58.892 85.9613 55.0252 87.3028C53.8473 87.7121 52.5498 87.9394 51.3007 87.965C48.5721 88.0219 45.7894 88.1156 43.2827 86.7543C41.308 85.6828 40.059 83.9605 39.4387 81.8148C39.0603 80.5074 39.9167 78.9158 41.1601 78.3588C41.8259 78.0604 42.4547 78.1883 42.8701 78.6459C43.2116 79.0238 43.5103 79.6718 43.4392 80.1379C43.3225 80.8882 43.2172 81.522 43.7294 82.17C44.3554 82.963 45.0411 83.6309 46.0796 83.8099C46.6914 83.9151 47.2974 84.0458 47.9148 84.1168C48.555 84.1907 49.2038 84.2049 49.8468 84.2476V84.2419Z" fill="black"/>
<path d="M116.176 69.7871C117.232 70.0997 118.06 70.293 118.842 70.5971C119.577 70.8841 120.342 71.1911 120.954 71.6686C121.759 72.2967 121.884 73.3568 121.454 74.1952C121.016 75.0478 120.023 75.5622 119.036 75.3121C117.46 74.917 115.9 74.4566 114.344 73.9849C113.613 73.7632 113.115 73.8655 112.788 74.6272C112.566 75.1444 112.227 75.6134 111.92 76.0908C111.741 76.3722 111.547 76.6536 111.314 76.8895C110.577 77.6483 109.675 77.8046 108.85 77.3499C108.05 76.9065 107.572 75.9658 107.885 75.0307C108.218 74.036 108.69 73.0754 109.203 72.1574C110.989 68.9572 113.129 66.0242 115.957 63.6482C116.717 63.0088 117.536 62.4034 118.615 62.7132C120.305 63.1992 120.76 65.038 119.517 66.4192C118.914 67.0871 118.188 67.6413 117.542 68.2751C117.11 68.7014 116.723 69.1732 116.174 69.7843L116.176 69.7871Z" fill="black"/>
<path d="M46.4581 75.1444C46.4581 72.8651 47.9632 71.0376 50.0631 70.6937C50.4984 70.6227 51.002 70.688 51.4174 70.8415C52.4787 71.2309 52.6409 72.4046 51.7589 73.1123C51.3378 73.4477 50.8313 73.6836 50.4386 74.0474C49.9293 74.5163 50.0773 75.0392 50.7573 75.1586C51.2268 75.241 51.7332 75.1842 52.2141 75.133C53.1531 75.0307 53.8416 75.3462 54.2229 76.1022C54.5814 76.8099 54.4903 77.6369 53.7506 78.1826C53.1787 78.6032 52.4303 78.9357 51.7304 79.0039C50.1541 79.1574 48.7286 78.6487 47.5421 77.5516C46.7967 76.861 46.4154 76.0254 46.4581 75.1472V75.1444Z" fill="black"/>
<path d="M93.2234 72.1205C94.5948 72.2001 96.2764 72.5837 97.6763 73.8002C99.318 75.2269 99.4375 77.3385 97.9409 78.913C97.0105 79.8907 95.8894 80.5558 94.5607 80.8314C92.1023 81.3402 89.7123 81.4425 87.5698 79.7543C85.5695 78.1798 85.4642 75.7157 87.3877 74.0502C88.8245 72.8054 90.7508 72.1205 93.2234 72.1233V72.1205Z" fill="#F4A0A2"/>
</g>
<defs>
<clipPath id="clip0_1132_6376">
<rect width="151" height="104" fill="white"/>
</clipPath>
</defs>
</svg>
